<svg xmlns="http://www.w3.org/2000/svg" viewBox="0 0 906.96 1187.56"><defs><style>.cls-1{fill:#fbefe3;}.cls-2{fill:#d6d9e4;}.cls-3{fill:#f1f1f1;}.cls-4{fill:#090094;}.cls-5{fill:#ff9e2e;}.cls-6{fill:#09006d;}.cls-7{fill:#c7cdd3;}.cls-8{fill:#e6e0e0;}.cls-9{fill:#e3c7ac;}.cls-10{fill:#fbedda;}.cls-11{fill:#000670;}.cls-12{fill:#ccaf89;}.cls-13{fill:#ed7d41;}.cls-14{fill:#f1a874;}.cls-15{fill:#221066;}.cls-16{fill:#092ebf;}.cls-17{fill:#f6d9c5;}.cls-18{fill:#e2dcdd;}.cls-19{fill:#d79546;}.cls-20{fill:#c7af99;}.cls-21{fill:#dcc2aa;}.cls-22{fill:#d4bcaa;}.cls-23{fill:#ddc4b3;}.cls-24{fill:#d97f6a;}.cls-25{fill:#1a1945;}.cls-26{fill:#251266;}.cls-27{fill:#3a3f7d;}.cls-28{fill:#a2a8bf;}</style></defs><g id="Calque_2" data-name="Calque 2"><g id="Calque_2-2" data-name="Calque 2"><circle class="cls-1" cx="408.29" cy="381" r="381"/></g><g id="Calque_1-2" data-name="Calque 1"><path class="cls-2" d="M463.6,804.54l.46,134.18a.49.49,0,0,0-.12.25c-2.3,19.25-13.69,30.95-27.76,40.45-15.31,10.34-33,9.92-50.61,10.34-19.75.48-39.48,2-59.23,2.75-83.38.55-167,8.42-250.12,5.53h-.08C51,992.94,27.54,965.74,26.81,940Q15.17,576.31,2.28,212.68c-2.76-33.45-8.8-89.53,24.42-108.14a38.59,38.59,0,0,1,17.49-4.72L302.41,85.31"/><path class="cls-2" d="M394.41,953.16c33.09,3.09,61.81-22.49,52.64-56.39a.44.44,0,0,1,0-.1c-.72-14.2,2-28.06-1.41-42.12a.29.29,0,0,1,0-.13c1-13.16,1.15-26.14-1.38-39.2a.37.37,0,0,1,0-.18c2.49-10.52-.82-20.59-1.18-31.1a.57.57,0,0,0,0-.13c-6.78-29.81-5.67-36.9-5.27-64.27l.05-29.59c0-.07-4.56-8.88-4.56-9-.23-7,4.52-12.62-2-10-5.8,2.34,3-4,3-4,1.11-6.49-.31-10.64-3-17,0,0,0-8,0-8-1.84-10.38,3.85-15.11,0-25,0,0,2,0,2,0-.22-7-1.79-9-2-16,0,0-1-4-1-4,2.83-10.22-1.07-21.37,0-32,.83-8.83,1-16.29-2-25,0,0,0-7,0-7-1.6-11,1.95-15.33-2-26,0-6.22,1-11.78,1-18a11.69,11.69,0,0,0-1-10c0-.06,0-2.93,0-3-1.3-16.08,2.11-26.15-1-42,0-.2-1.18-2.9-1-3,1.48-.8.56-1.33-1-2-.15-.06-1-5.84-1-6-1.1-7.5,4.1-10.83,1-18-.38-7.66-2.62-12.34-3-20,2.91-10.16,1.07-21.51,2-32,0,0-2.84-2.3-2-7,1.56-8.72,1.06-8.46,0-17,0-.19-7.23-1.49-1-2,1.65-.13-.48-4.33-2-5-.14-.06,4-.85,4-1-1.58-8.25,1.79-13.29-2-21,0-.06-2-4.94-2-5-.16-5.93,8.6-6.28,8.44-12.22l2.67-.82c4,6.43,10.43,6.86,17.27,6.33a.46.46,0,0,1,.49.44c3.43,167,12.83,333.71,17.19,500.63l.25,15.18"/><path class="cls-3" d="M43.8,858.53c5.72,37.85-13.4,106.74,34.46,119.06,13.65,3.63,27.71.4,41.57.89"/><path class="cls-2" d="M302.41,85.31c-3.74,16.3-5.42,32.36,7.93,47.22-23.69,4.51-46.3,1.81-70.09,3.31-2.06,0-4.73-1-5.5,2.32-36.92-3-75.06,2-111.94,0-.25-2.46-1.53-3.64-4-3.26l0,0c.47-3-1.28-3.71-3.76-4.2l0-.35-4.32-18.09c-.83-.77-1.88-2.2-2.76-2.21-17.91.43-35.83.67-53.68,1.86-4,.18-9.36.81-11.75,5.72-2.7-.34-5.3.12-5.88,3.36l-1.41,1.16c-2.72,0-4.83.73-4.53,4.07l.06-.07c-2.59-.3-2.85,1.45-2.86,3.44l-1.09,1.31c-4.31.65-2.87,4.4-4,7.31-1.44.27-2.78.59-1.22,2.48l-1.25,3.72c-2.52.63-2.74,1.89-.87,3.73l-.77,6.29q-4.16,2.4.39,4.78c2.28,13.75-4.59,27.54,1.23,40.63.21,5.16-3.07,9.93.61,14.82l.69,27.11c-1,8.7-3.15,17.46,1.29,25.89l.2,12.2c-1.9,3.76-2.16,7.49.22,11.16l.69,17.27c-1.17,5.39-2.44,10.79.75,16l.63,25.85c-1.08,8.28-3.37,16.61,1.23,24.6l1.16,33.93c-.87,5.91-1.94,11.82-.19,17.6l1.48,17.17c-2.91,19.08,2,37.72,1.82,56.74.08,14.51-2.42,29.12,1.79,43.46,1,52.56,3.3,105.09,4.84,157.64-1.41,1.73-1.33,3.32.42,4.78.41,24.22,1.15,48.42,2.48,72.61"/><path class="cls-4" d="M670.67,982.87c-32.88-56.59-30.9-139.81-40.46-205"/><path class="cls-4" d="M670.67,982.87l7.35,12c35.89,47.84,75.37,91.69,115.52,135.62l47.9-56.45c7.64-9.41,17-17.15,22.5-28.14C829.15,1007.2,793.52,969.36,758.4,931c-5.48-5.94-10.18-12.07-10.7-20.73-1.35-22.68-3-45.33-4.6-68-29.49-7.69-58.92-15.21-88.4-23-2.41-13.26.26-25.33.55-37.85-7.86-1.91-17.72-4.9-25.61-6.69"/><path class="cls-5" d="M846.35,878.42c-9.64,3.08-19.09.26-28.6-.92-19.11-34.58-26-73.29-40.13-109.72-1.42,26.74-1,53.47-7,80.31l-27.55-5.84c-29.49-7.69-82.72,7-88.4-23C643.29,759,704.47,642.89,736.91,592.53c18.59.34,29.21,24,41.48,35,6.61,8.67,12.68,17.71,18.79,26.74,30.88,49.35,47.27,105.87,50,163.89"/><path class="cls-6" d="M540.62,1140.88c28.37-120,56.74-247.91,85.27-367.83l4.32,1.86c9.61,65.38,7.49,151,40.46,208L646.8,1148.68"/><path class="cls-2" d="M718.38,517.72c-3.47-2.17-4.22-5.72-4.84-10,7.34-3.15,3.19-13.49,10.49-17-1.43-6.56-2.32-15,4.39-16.27,9.36-1.8,19.1-10.71,29.07-1.9a11.63,11.63,0,0,0,8.81,3.24c13.2-.76,15.73,13.65,25.72,17.85,15.16,6.38,24.1,19.16,30.73,33.71-3,10.79,12,19.44,4.29,30.34-10.8,15.33-15.39,34.89-35.32,47.5l-5.74,1c-5.22-2-7.75-6.86-11.12-11.22l-4,2.05c-5.65-2.5-8.28-6.82-8.75-11.92l-6.92-3.59c-2.6-6.05-.52-11.35,2.14-16.68,9.33,1.33,14.76-3.94,15.86-11.27,1.33-8.89-6.5-11-13-12.64-3.71.47-5.67,4.51-11.16,2.46,2.28-13,4.08-26.92-10.49-36.76C730.62,505.82,726.41,515.59,718.38,517.72Z"/><path class="cls-7" d="M617.67,764.61l1.62,3.39c2,3.89,8.06,6.72,12.29,7.71h.06c7.89,1.79,15.75,3.78,23.61,5.69,16.42-65,49.43-123.58,80.84-182.18-7.65-1.47-11.8-4.23-18.8-4.23-1.86,3.19-12.06,14.09-10,11-2,3,.9,3.78.34,5.52C689,668,646.13,710,618.67,761.61"/><path class="cls-1" d="M135.08,1181.15,96,1141.71l39.2-39.24,39.13,39.16Z"/><path class="cls-8" d="M566.56,1159.15c8.42,1.79,11.37,18,4.56,28.28-30.61,0-61.7.44-92.76-.32-7.78-.19-4.29-7.35-4.23-12.5,26.33-.17,44.71-20.88,69.39-22.82.14,2.39.28,4.77.39,6.81C551.68,1164.53,559.1,1163.92,566.56,1159.15Z"/><path class="cls-8" d="M883.07,1070.61l5.27-2.26c10.31,3.9,26.78,10.54,13.92,23.87-19.44,21.61-37.5,44.48-56.29,67-8.68-4.1-11.12-9-4.72-16.72,9.33-11.28,8.62-26.2,13.69-39,2.27-5.74,1.38-12.91,7.44-17C874.15,1088.46,883,1081.67,883.07,1070.61Z"/><path class="cls-9" d="M817.75,877.5c9.51,1.18,19,4,28.6.92,7.72,16.1,24.32,23.66,35.27,36.29-1,10.56-16.06,13.32-27.32,5.54-9.21-5.11-21.16-17.83-30.13-5.67-2.38,2.94-5.41,4.24-9.91,2.22,3.59-11.45,13.27-21.53,9-34.89Z"/><path class="cls-2" d="M744,.47c5.81,5.43,12.4,11.61,19.68,18.44L742,37.69,723.84,19.3Z"/><path class="cls-9" d="M883.07,1070.61c-.09,11.06-8.92,17.85-20.69,15.9a63,63,0,0,0-21-12.48L860,1053Z"/><path class="cls-9" d="M569.45,1143.1c-.89,4.35-1.89,11.2-2.89,16.05-7.46,4.77-14.88,5.38-22.65-.55-1-6.1.72-11.57,2-17.62"/><path class="cls-10" d="M799.15,657.25l-2-3C799,654.49,799.54,655.56,799.15,657.25Z"/><path class="cls-3" d="M463.6,804.54l2.45,0Z"/><path class="cls-10" d="M782,632.46l-2-2.88Z"/><path class="cls-10" d="M785.73,637.38l-2.17-2.84Z"/><path class="cls-11" d="M373.4,210.92l-.56-3.9a10.54,10.54,0,0,0,.05-9.46c.18-1.29.37-2.59.55-3.89,2.5-2.55,2.64-5.74,2.43-9,4.28-14.16,12.65-24.85,22.56-36.69-29-5-58.4,4.59-84.92-13.17"/><path class="cls-12" d="M313.29,135c-32-30-8.41-74.39,25.55-81,21.85-3.9,36.43,13.93,48.45,28.8,5,6.18,8,7.45,11.35,12.2a224,224,0,0,1,20.68,36.76c38.64-13.19,58.79,6.59,86.63,30,23.23-20.36,62.07,2.57,49.12,32.85-19.13,38-51.69,9-75.49-6.43-6.4,8.36-12.06,16.37-21.35,21.34-9.09-30.55-47.38-8.46-34,17.59-13.22,5.17-26.07,6.84-39.28,2.27"/><path class="cls-13" d="M707.32,606a7,7,0,0,1,.34,5.52C689,668,646.13,710,618.67,761.61c-39.15-11.77-68.56-40.53-90.12-74,1.7-9.69,9.22-15.38,15.18-22.15C651.29,739.35,636.44,667.93,707.32,606Z"/><path class="cls-9" d="M755.19,581.6q-2.64,8.21-5.3,16.41l-5.41-.8a11.52,11.52,0,0,0-8.35,2l0,0-16.61-4.06,11-18.55C679,581,704.76,545,718.38,517.71c8-2.12,12.24-11.89,20.14-11,14.57,9.84,12.77,23.76,10.49,36.76,5.49,2,7.45-2,11.16-2.46,6.52,1.59,14.35,3.75,13,12.64-1.1,7.33-6.53,12.6-15.86,11.27C754.67,570.25,752.59,575.55,755.19,581.6Z"/><path class="cls-9" d="M543.73,665.44c-6,6.77-13.48,12.46-15.18,22.15-3.51-22-28-20.67-39.24-34.24,3.69-5,8.89-1.06,13-4.18,2.79-9.32-6.48-18-4.22-29.29C517.69,632.31,522.59,657.11,543.73,665.44Z"/><path class="cls-2" d="M436.52,127.16c-5.44,2-10.6,5.06-17.2,4.62A224,224,0,0,0,398.64,95c-3.33-4.75-4.35-5-11.35-12.2C409.87,89.67,428.18,104.49,436.52,127.16Z"/><path class="cls-14" d="M366,300.28c-47.1,87.07-106.81,185.84-151.45,275.17,1.76,7.55,2,13.89.76,17.55-5.45,8-11.48,15.54-14,25-2.74.84-8.23-3.9-8.13-1.43-.8,2.45,2.17,8.09,1.13,10.43-2.22,1-8.08,6.72-8,9l.71-7.39c-6.65-3.43-13.61-6.3-19.88-10.43-3.69-6.08-11.06-6.41-16.3-10.59-7.53,6.41-9.53.41-9.45-6.33-3.12-1.46-5.77-3.77-8.65-5.65-5.43,8.39-7.43,1.39-6.43-4.07-4.81-2.92-9.61-6.32-14.5-9.29-3.5,1.75-6.5.75-6.38-4.27-2.75-1.87-5.69-3.62-8.41-5.42C67.29,548,133.79,467,147.32,428.87c-35.78,39.68-65.86,83.05-93.38,128.19-6.56,5.78-5.09,10.48-9.81,17.31-.63,1.4-3.49,6-5,4.87-6.52-4.92-1.62-12.92-5-18.68l-1.18-6c-1.27-18.17,2.4-36.47-2-54.44q-.11-6.74-.22-13.46c3.37-20.59-3.84-40.93-1.31-61.43,81.86-79.42,174.33-141.16,286.32-169.13,22.07-8.26,28.72-6.65,47,8.92l1.3,1.26M219.34,501.49l-77.28-11.14-.66,2.16,58.51,37.91Z"/><path class="cls-4" d="M352.88,248l-7.38,4.71C223.14,266,117.52,342.53,29.43,425.27c-4.81-61-4.61-122.36-7.75-183.49-.43-21.79-1.33-43.57-2.22-65.35-.56-17.51-2.47-37,11.36-50.27l-.06.07a56,56,0,0,1,11.42-8.66l.4.07.25-.33c22.23-6.53,45.14-4.12,67.79-5.23l.15.19c.06,6.36-.7,12.92,4.32,18.09l0,.35.31.17,3.45,4,0,0c3.73,3.25,9.06,6.44,13.86,7,59.07-3.3,118.38-1.84,177.31-7,1.19-.15,2.75-.57,3.58,0C340,152.55,369.41,143,398.43,148c-18.13,21.11-37.63,53.22-15.52,77.68-.58,5.05-7.41,4.92-9.42,8.55l-5.16,3.61h-.44l-.25.35-3.05,2.1"/><path class="cls-15" d="M364,240.62c-1.67,1.08-3.2,2.42-4.95,3.35"/><path class="cls-16" d="M126.29,591.54c-20.11-13-40.39-26.1-60.8-38.82-2.45-1.56-4.8-3.25-7.92-2-1.15,2.13-2.32,4.25-3.63,6.29-3.1,5.75-6.65,11.51-9.81,17.31-1.18,1.9-.11,5.57-3.86,5.11a.91.91,0,0,1-1.13-.24c-1.92-.42-3.85-.83-5.77-1.27,2.41,55.43,3.86,110.93,5.49,166.39,78.27,22.73,155.84,75.65,240,56.13,6.64-39.67,8.3-80,3.94-119.74a381.8,381.8,0,0,0-9.36-59.27c-.48-2,.42-4.32.68-6.48-19.15-12.69-40.63-27.31-59.78-40L187,628.61"/><path class="cls-15" d="M254.12,882.05l-.84-17.24"/><path class="cls-4" d="M252.07,804.49l-3.88,169.43,87.37-3.73,71.38-2.93A43.36,43.36,0,0,0,419.42,965c22.14-7.72,27.36-30.23,26.61-53.28.07-26.38-4-52.6-2.68-78.92-4.41-39.2,7.81-44.93-29.86-69.93-14.22-10.77-9,13.64-20.94,15.25-6.39-7.5-6.11-17-6.05-25.86.14-21.77-1.3-42.88-15.08-61.1-26.15,8-52.15,16.61-78.41,24.29-2.33.63-5.13,1.25-5.16-2.79.35-.15.34-.43,0-.84l-2.63,1a473,473,0,0,1-6.4,86.66l-26.74,5"/><path class="cls-4" d="M119.83,978.48c-94.92,11.12-70-54.32-76-120C57.19,857.42,65.56,850,70.92,838c5.77-13,12.35-25.66,18.58-38.46,1.34,6.31,27.53,9.31,34.3,11.52,16,3,31.88,7.94,48.54,5.66C186.75,852.64,183,892.1,185,930.1c0,15.29,3.35,30.52.75,45.83"/><path class="cls-4" d="M421.7,287.27c4.21,9,3.05,18.79,3.51,28.41.75,17.55,1.22,35.1,1.91,52.65.12,22.64,1.58,45,2.36,67.76,1.3,12.62-1.52,25.29,1.36,37.78,1.33,53.2,3.85,106.1,5.41,159.39-.05,39.75,5.24,80.11,2.83,120.1-17.18-22.86-27.75-47.85-31.39-75.66l6.92-3.07c-35.57-112.11-51.13-230.09-37-347.34,3.79-9.67,9.67-18.25,15-27.1,4.33-2.84-4.5-6.58-6.07-9.3l2-4.85.32-.15,0-.35,3.32-4.44.36-.17,0-.4,3.89-5.21-.07,0c3.32-4.37,6.36-9,9.7-13.31l3.7-1.37c4.07,9,5.42,18.69,11.78,26.09"/><path class="cls-17" d="M251.94,834.07q.06-14.79.13-29.58c-29.39.67-57.8-5.7-85.88-13.41,5.63,27.91,18,54,17.09,83.06-.54,34,4.73,67.94,2.46,101.79l69.94-1.69c.4-28.8-1.53-58.35-1.36-87.22"/><path class="cls-17" d="M40.49,778.65q-.81-17.14-1.63-34.29c21.44,8,43.63,14.27,64.62,23.31l-14,31.83C83.27,812.3,76.69,825,70.92,838,65.56,850,57.19,857.42,43.8,858.53"/><path class="cls-17" d="M435,747.64a156.62,156.62,0,0,1-27.26-69.94l-36.61,11.66c12.56,19.4,16.31,40.13,15.42,62.9-.06,8.81-.34,18.36,6.05,25.86,6.5-1.4,7.59-6.22,8.8-10.72,2-7.41,6.53-9.25,12.14-4.53,11.9,10,19.8,21.13,28.57,36C448.29,788,444.29,766,444.29,766,444,761.32,437.62,751.49,435,747.64Z"/><path class="cls-18" d="M21.68,241.78q.62,12.9,1.24,25.8C18.55,259.17,20.71,250.45,21.68,241.78Z"/><path class="cls-18" d="M25.46,350.12l1.23,24.6C22.09,366.73,24.38,358.4,25.46,350.12Z"/><path class="cls-19" d="M39.14,579.24c-1.92-.42-3.85-.83-5.77-1.27L33,560.66l1.15-.1C37.52,566.32,32.62,574.32,39.14,579.24Z"/><path class="cls-18" d="M24.08,308.3l.75,16C21.64,319.09,22.91,313.69,24.08,308.3Z"/><path class="cls-19" d="M35.25,630.51q.21,6.53.41,13Q35.45,637,35.25,630.51Z"/><path class="cls-19" d="M33.64,582.68q.36,5.66.72,11.29Z"/><path class="cls-18" d="M23.17,279.87q.1,5.58.22,11.16C21,287.35,21.27,283.63,23.17,279.87Z"/><path class="cls-20" d="M34.1,560.56l-1.15.1,0-6.06Q33.51,557.57,34.1,560.56Z"/><path class="cls-21" d="M37.59,701.26,38,706C36.26,704.58,36.18,703,37.59,701.26Z"/><path class="cls-22" d="M437,952.37c.63-.85,1.25-1.71,1.87-2.56C438.21,950.66,437.59,951.52,437,952.37Z"/><path class="cls-20" d="M162.32,976.92l2.16,0Z"/><path class="cls-7" d="M364.29,269c1.08-.48,1,3.91,2.11,3.43,9,7.59,17.6,15.45,25.82,23.8l.4,4c-3.84,6-7.31,12.27-11.14,18.3C329.39,411.72,302.72,515,280.88,618.86c-22.67-13.56-44.27-28.92-66.35-43.41C257.36,492,299.92,408.18,346.77,327a74.35,74.35,0,0,0,7.67-18.8L363.29,271"/><path class="cls-17" d="M352.88,248l-3.71,7.24c5,3.61,10.51,6.64,14.85,11.09,2.3.57,2.48,2,2.4,3.46l-.06.91.06-.91c.08-1.49-.1-2.89-2.41-3.46l-.72,4.68c1.08-.48,2,1.91,3.11,1.43,6.15,5.37,11.75,11.2,17.89,16.57l2.26,1.89,2-4.85h0l.32-.15a5.57,5.57,0,0,1-.05-2.06,5.5,5.5,0,0,0,0,1.71l3.32-4.44a7.76,7.76,0,0,0-1.07.22,7.59,7.59,0,0,1,1.43-.39c-.05-.48-.09-1-.11-1.44,0,.34.05.69.09,1l3.89-5.21h0c.7-.94,1.39-1.88,2.09-2.81l1.4-1.95h0l4.78-6.69,1.4-1.82h0l3.7-1.37c4.07,9,5.42,18.69,11.78,26.09l3.26,4.11a13.84,13.84,0,0,1,2.06,3.6c2,5.13,3.17,9.81,18.34,8.77,35.81-17.83,67.72-49.9,77.51-89.88-16.12-5.12-28.62-16.68-43.08-25.21-6.4,8.36-12.06,16.37-21.35,21.34-9.08-30.54-47.38-8.48-34,17.59-13.22,5.17-26.07,6.84-39.28,2.27h0l-3-3.72-9.42,8.55M364,240.62l-4.54,3.18a5,5,0,0,0,2.31,0,4.25,4.25,0,0,1-2.31,0L359,244h0l-5.47,3.67c.32,0,.63,0,.94,0m0,0,.33,0Zm.52,0,.22,0Zm.5-.06.15,0Zm.47-.1.1,0Zm.45-.13.07,0Zm.41-.16.07,0Zm.38-.2.07,0Zm.34-.23.09-.07Zm.31-.27.11-.12ZM359,244a5.31,5.31,0,0,1-.4,1.42A5.31,5.31,0,0,0,359,244Zm-.45,1.52-.15.26Zm-.24.42-.14.17Zm3.84-2.32-.16.08Zm31,32.44a.52.52,0,0,0-.1.11A.52.52,0,0,1,393.18,276.07Zm-.28.35a.16.16,0,0,0,0,.07A.16.16,0,0,1,392.9,276.42Zm-.21.4v0Zm-.31,2.35a1.7,1.7,0,0,1,0,.22A1.7,1.7,0,0,0,392.38,279.17Zm2.14-3.79a5.93,5.93,0,0,1,1.78-.06h0A5.93,5.93,0,0,0,394.52,275.38Zm-1.16.53.16-.13Zm.33-.23.25-.12Zm.39-.17a2.89,2.89,0,0,1,.35-.11A2.89,2.89,0,0,0,394.08,275.51Z"/><path class="cls-23" d="M343.29,253c1.22.84,4.66,1.39,5.88,2.23l3.71-7.24C350.42,249.56,345.75,251.43,343.29,253Z"/><path class="cls-22" d="M362.71,265.06l-2.64-2.35Z"/><path class="cls-22" d="M364.59,240.25l3.05-2.1Z"/><path class="cls-22" d="M368.33,237.8l3-2.13Z"/><path class="cls-24" d="M97,572.56c-9.71-3.56-33.32-24.37-39.43-21.79,27-42.6,55.42-84.14,89.75-121.9-16.61,40.07-47,88.51-52.6,134.5C94.25,566.23,96.19,569.49,97,572.56Z"/><path class="cls-14" d="M219.34,501.49l-19.43,28.93L141.4,492.51l.66-2.16Z"/><path class="cls-19" d="M53.49,558.15,48,567.28A10.91,10.91,0,0,1,53.49,558.15Z"/><path class="cls-19" d="M43.68,575.41c-.7,1.72-.06,4.57-3.41,4.07C41.41,578.13,42.54,576.77,43.68,575.41Z"/><path class="cls-22" d="M340.39,338.76l-2,2.79Z"/><path class="cls-22" d="M344,332.54c-.69.94-1.37,1.89-2,2.83Z"/><path class="cls-19" d="M55.56,554.45l-1.62,2.61Z"/><path class="cls-19" d="M45.81,571.68l-1.68,2.69Z"/><path class="cls-19" d="M100.71,574.91l-2.81-1.79Z"/><path class="cls-19" d="M125.31,591.06l-2.75-1.95Z"/><path class="cls-19" d="M140.08,600.67l-2.64-1.77Z"/><path class="cls-19" d="M192.41,618.5l-1.7,3C191.28,620.5,191.84,619.5,192.41,618.5Z"/><path class="cls-22" d="M349,324,347,326.79Z"/><path class="cls-25" d="M89.5,799.5l14-31.83,62.71,23.41,6.15,25.6C155.68,819,139.84,814,123.8,811,117.06,808.83,90.77,805.77,89.5,799.5Z"/><path class="cls-26" d="M274.07,615l6.81,3.86c1.1,31.17,4.77,62.18,7.17,93.27H285.2c-2.23-30.43-4.31-61-11.81-90.66C272.91,619.49,273.81,617.16,274.07,615Z"/><path class="cls-24" d="M288.05,712.13c-2.4-31.09-6.07-62.1-7.17-93.27,22-100.22,45.31-201.67,96.72-291.57-14.12,117.26,1.44,235.22,37,347.34-39,14.88-79.57,25.07-119.25,38-2.56.79-5,2-7.51,0A.34.34,0,0,0,288.05,712.13Z"/><path class="cls-26" d="M287.85,712.66c2.52,1.91,4.95.75,7.51,0q37.84-11.7,75.72-23.26c.11.6.23,1.2.34,1.8-26.15,8-52.15,16.61-78.41,24.29C290.68,716.08,287.88,716.7,287.85,712.66Z"/><path class="cls-27" d="M253.28,864.81l-.6-7.45"/><path class="cls-22" d="M381.48,318.49c.59-.93,1.18-1.87,1.78-2.8Z"/><path class="cls-22" d="M388.87,306.22c.62-1,1.23-2,1.84-2.93C390.1,304.27,389.49,305.25,388.87,306.22Z"/><path class="cls-22" d="M392.62,300.19c0-1.2,0-2.4,0-3.6C394.74,297.77,394.23,299,392.62,300.19Z"/><path class="cls-28" d="M770.88,303.24c-94.15.59-92.3-143.8,1.76-142.88C863,159.92,867.17,304.55,770.88,303.24Z"/></g></g></svg>