<svg xmlns="http://www.w3.org/2000/svg" viewBox="0 0 444 444"><defs><style>.cls-1{fill:blue;}.cls-2{fill:none;stroke:#fff;stroke-miterlimit:10;opacity:0.02;}</style></defs><g id="Calque_2" data-name="Calque 2"><g id="Calque_1-2" data-name="Calque 1"><path class="cls-1" d="M96.54,217.2c-.64-67.08,56.29-127.49,130.3-124.69,63.58,2.4,122.26,56.46,119.61,130C344.17,286,290,344.9,215.82,341.93,151.23,339.34,96.33,285.2,96.54,217.2Zm235.61.09C331.35,155.82,283,107,221.55,107c-61.17,0-110.48,48.52-110.52,110.23,0,61.49,49,110.27,110.43,110.32C282.71,327.56,331.28,279,332.15,217.29Z"/><path class="cls-1" d="M221.44,312.22c-51.35.35-97-42.53-95.09-98.59,1.64-49.07,43.18-93.4,99.29-91.34,48.19,1.76,93.15,42.49,90.95,99.15C314.66,271.34,273,312.39,221.44,312.22ZM302.34,217c-1.08-46.3-37.49-80.54-81.19-80.24-45.28.3-80.65,36.25-80.31,80.95.36,46.5,37.63,80.46,81.13,80.13C267.19,297.43,301.77,261.57,302.34,217Z"/><path class="cls-1" d="M228.82,181.55c-.07,1-.18,1.82-.18,2.64,0,7.83.09,15.66-.07,23.48,0,2.32.86,3,2.9,3.41a35,35,0,0,1,17.1,8.37c13.59,12,12.42,30.56-2.52,41.39a36.79,36.79,0,0,1-14.82,6.32c-2,.39-2.76,1.24-2.63,3.24a56.3,56.3,0,0,1,0,5.81,7.11,7.11,0,0,1-14.21,0c-.07-2.09-.1-4.19,0-6.28.08-1.65-.66-2.35-2.2-2.64a36.43,36.43,0,0,1-17.62-8.34c-5.93-5.26-9.61-11.69-9.58-19.84a7,7,0,0,1,6.58-7.09c4.16-.2,7.52,2.36,7.67,6.35.28,7.44,7.2,13.11,14.95,14.24.07-.76.18-1.51.18-2.27,0-8,0-16,0-23.94,0-1.94-.7-2.6-2.58-3-8.4-1.8-15.77-5.56-21.15-12.44-9.23-11.81-7.06-27.2,4.91-36.39a38.52,38.52,0,0,1,16.12-7.32c2-.4,2.95-1.19,2.71-3.38a37,37,0,0,1,0-5.57,7.11,7.11,0,0,1,14.21,0,39.64,39.64,0,0,1,0,5.34c-.23,2.29.65,3.25,2.91,3.69a34.81,34.81,0,0,1,16.05,7.41C254,180.1,258.1,186.8,258,195.52a7.27,7.27,0,0,1-6.56,7c-3.74.28-7.36-2.29-7.63-6-.62-8.29-6-12.11-13-14.49C230.24,181.84,229.65,181.75,228.82,181.55Zm-14.67-.72c-3.62,1.93-7,3.21-9.71,5.31-3.86,3-6.13,7-4.44,12.21,1.61,4.93,8.7,10.13,14.15,10.32Zm14.69,72c5.36-1.47,10-3.52,13-8.21,2-3.16,2.48-6.52.66-9.89-2.87-5.34-7.69-7.94-13.62-9.44Z"/><rect class="cls-2" x="0.5" y="0.5" width="443" height="443"/></g></g></svg>