<svg xmlns="http://www.w3.org/2000/svg" viewBox="0 0 444 444"><defs><style>.cls-1{fill:blue;}.cls-2{fill:none;stroke:#fff;stroke-miterlimit:10;opacity:0.02;}</style></defs><g id="Calque_2" data-name="Calque 2"><g id="Calque_1-2" data-name="Calque 1"><path class="cls-1" d="M371.52,310.94V298.68c0-3.08-.06-6.16,0-9.23.09-3.52,2.61-5.81,6.19-5.77,3.39,0,6,2.34,6,5.68q.07,32.94,0,65.87a5.61,5.61,0,0,1-5.66,5.68c-.69,0-1.38,0-2.08,0H71.45c-.59,0-1.19,0-1.78,0-3.61-.13-5.92-2.4-5.92-6,0-33.38-.06-66.76.11-100.14,0-1.82,1.48-4.11,3-5.36,2.94-2.47,6.49-4.2,9.54-6.57a6.67,6.67,0,0,0,2.3-4.09c1.21-11.13,2.25-22.28,3.25-33.44.93-10.26,1.7-20.53,2.61-30.79s1.93-20.5,2.89-30.76c.46-4.92.85-9.86,1.36-14.78.38-3.7,2.56-5.61,6.35-5.62q12.19,0,24.41,0c4,0,6,1.83,6.43,5.82,1.06,11.24,2,22.49,3,33.73q1.89,20.42,3.84,40.83c0,.18.18.35.48.9,1.12-.66,2.28-1.28,3.37-2,1.59-1,3.08-2.18,4.7-3.15,4.62-2.78,9.54-.07,9.56,5.31,0,11.42,0,22.85,0,34.27v3.86c1.26-.69,2.09-1.08,2.85-1.59,3.8-2.52,7.65-5,11.32-7.69a5.21,5.21,0,0,0,1.91-3.29q2-19.36,3.68-38.75c.91-10.26,1.64-20.53,2.56-30.79q1.44-16.12,3.09-32.22a5.62,5.62,0,0,1,5.82-5.24q12.81-.07,25.6,0a5.41,5.41,0,0,1,5.65,5c.71,6.3,1.28,12.61,1.86,18.92q1.17,12.57,2.28,25.15c.7,7.8,1.44,15.6,2.07,23.4.13,1.52.35,2.34,2.15,2.83,3,.82,4.24,3.19,4.22,6.38-.07,11.43,0,22.85,0,34.28v3.87c1.42-.74,2.36-1.15,3.22-1.69l64.25-40.91a14,14,0,0,1,3.91-2c4.14-1,7.33,1.79,7.34,6.26,0,11.42,0,22.85,0,34.27,0,1.16.1,2.32.18,4.11,1.54-.85,2.64-1.39,3.66-2q32.25-20.52,64.51-41a10,10,0,0,1,3.46-1.59c4.09-.68,7.13,2,7.15,6.25q0,14.16,0,28.31c0,3.84-2.31,6.22-6,6.26-3.84,0-6.18-2.32-6.2-6.32,0-5.45,0-10.9,0-17-1.47.81-2.48,1.31-3.42,1.9q-32.39,20.6-64.74,41.23c-2.14,1.37-4.31,2.21-6.7,1.33-2.7-1-3.86-3.14-3.84-6.08.05-11.42,0-22.85,0-34.27V216c-1.54.82-2.48,1.25-3.35,1.8q-32.5,20.67-65,41.4c-2.44,1.56-4.84,2.29-7.49.88s-3.19-4-3.18-6.85c.08-11,0-22.05,0-33.08v-3.73c-1.2.65-2,1-2.67,1.44q-30.31,20.25-60.59,40.52c-.74.49-1.46,1-2.23,1.48-4.6,2.67-9.54-.13-9.56-5.48,0-11.43,0-22.85,0-34.28v-3.62c-1.09.55-1.81.82-2.43,1.23-19.14,12.76-38.24,25.58-57.43,38.27a6,6,0,0,0-3.07,5.76c.13,15.2.06,30.4.06,45.6V311h37.85v-3.57q0-13.56,0-27.12c0-4.31,2.31-6.68,6.54-6.68q37.05,0,74.12,0c4.31,0,6.52,2.25,6.53,6.63,0,9.14.08,18.28,0,27.42,0,2.58.5,3.63,3.39,3.59,11.71-.17,23.42-.14,35.13,0,2.57,0,3.45-.68,3.4-3.33-.14-9.14-.06-18.28,0-27.42,0-4.82,2.08-6.88,6.86-6.88h73.22c4.78,0,6.86,2.09,6.87,6.89,0,9.24,0,18.48,0,27.72,0,2,.44,3,2.8,3,12.21-.11,24.41-.05,36.62-.06C369.82,311.18,370.49,311.05,371.52,310.94Zm-116.82,6c0,9.54.05,19.07,0,28.6,0,2.36.55,3.37,3.13,3.31,6.55-.16,13.1-.13,19.64,0,2.2,0,2.94-.66,2.93-2.89q-.09-28.59,0-57.2c0-2.42-.86-3-3.13-3-6.44.12-12.89.14-19.34,0-2.43-.05-3.28.67-3.25,3.18C254.77,298.25,254.7,307.59,254.7,316.92Zm63.15.61c0-9.54-.07-19.07,0-28.61,0-2.49-.78-3.24-3.23-3.18-6.44.15-12.89.13-19.33,0-2.27-.05-3.16.57-3.15,3q.1,28.61,0,57.21c0,2.2.73,2.93,2.93,2.89,6.45-.12,12.9-.19,19.34,0,2.89.1,3.47-1,3.43-3.61C317.78,336,317.85,326.76,317.85,317.53ZM151.11,286c-1.15-.06-2.11-.17-3.07-.17-6.24,0-12.49.14-18.72-.08-2.85-.1-3.43.92-3.42,3.55.1,18.65,0,37.29.06,55.94,0,1.07.09,2.13.14,3.29h25Zm12.36,31.56c0,9.42.07,18.85-.05,28.27,0,2.36.71,3.07,3,3,6.53-.13,13.07-.1,19.61,0,1.94,0,2.82-.43,2.82-2.62q-.1-28.86,0-57.73c0-2.07-.65-2.74-2.72-2.71-6.63.11-13.27.13-19.91,0-2.27,0-2.85.76-2.82,2.92C163.52,298.28,163.47,307.91,163.47,317.53ZM91.83,231.82a4.85,4.85,0,0,0,1.18-.13q13.5-9,27-18a3,3,0,0,0,1.2-2.15c0-2.27-.3-4.54-.51-6.81q-1.17-12.87-2.36-25.73c-.47-5.13-1-10.26-1.39-15.39-.19-2.31-1.15-3.25-3.58-3.14-4.06.2-8.14.18-12.2,0-2.19-.09-3,.8-3.22,2.82q-1,12-2.13,24c-.75,8.09-1.59,16.17-2.32,24.25C92.87,218.23,92.39,224.93,91.83,231.82Zm88.37-8.88a7.68,7.68,0,0,0,1.73-.48c8.27-5.47,16.55-10.92,24.74-16.51a3.85,3.85,0,0,0,1.13-3c-.56-8.3-1.26-16.59-2-24.88-.38-4.64-.87-9.27-1.24-13.91-.19-2.54-1-3.95-4-3.72-3.55.28-7.14.07-10.71.07-4.31,0-4.26.09-4.53,4.55-.34,5.63-.87,11.25-1.41,16.87-1,10.46-2.07,20.91-3.08,31.36C180.6,216.37,180.45,219.41,180.2,222.94Zm41.67,125.83c6,0,12.1-.06,18.15,0,2,0,2.84-.59,2.81-2.7-.09-6.75-.08-13.51,0-20.26,0-2-.79-2.53-2.67-2.52q-18.3.09-36.59,0c-1.91,0-2.63.57-2.61,2.54.09,6.75.11,13.51,0,20.26,0,2.14.76,2.71,2.77,2.68C209.77,348.71,215.82,348.77,221.87,348.77Zm149.45-25.1a6.54,6.54,0,0,0-1.14-.27c-12.69,0-25.38,0-38.07-.08-2.21,0-2.35,1.2-2.35,2.84,0,6.55.08,13.11,0,19.66,0,2.36.84,3,3.13,3,11.89-.1,23.79,0,35.69-.05.86,0,1.73-.13,2.77-.21Zm-295.19-.32v25.17h37.64c0-8,0-15.67,0-23.39,0-2.06-1.42-1.76-2.67-1.77h-35Zm111-175c5.08,0,9.62.06,14.15-.07.51,0,1.42-1.13,1.39-1.71-.11-3.26-.38-6.53-.81-9.76-.07-.51-1.22-1.2-1.9-1.23-3.36-.12-6.74-.14-10.11,0a2.52,2.52,0,0,0-1.85,1.59C187.56,140.69,187.4,144.25,187.11,148.33Zm-71.92-.1c-.29-4-.47-7.66-.91-11.27-.07-.56-1.31-1.36-2-1.39-3.27-.15-6.55-.12-9.82,0-.66,0-1.85.51-1.89.88-.42,3.87-.65,7.76-1,11.81Z"/><path class="cls-1" d="M237.41,110.44H199.63c-4.76,0-6.83-2.09-6.87-6.89-.12-16.16,13.88-30.29,30-30.31,7.84,0,15.67.08,23.51-.07a5.89,5.89,0,0,0,3.8-1.64c7-7.62,15.46-11,25.89-10.91,23.9.31,47.8.1,71.7.1,5.21,0,7.08,1.92,7.09,7.21,0,15.7-14.17,30-29.88,30-7.84,0-15.67-.08-23.5.08a6.4,6.4,0,0,0-4.05,1.73c-7.07,7.3-15.41,11.07-25.73,10.79C260.23,110.2,248.82,110.44,237.41,110.44ZM205.94,98.28h3.8c20.64,0,41.27,0,61.9,0,7.7,0,13.91-2.63,18.14-9.29a6.93,6.93,0,0,1,6.52-3.3c8.82.14,17.67.34,26.47-.08a29.31,29.31,0,0,0,11-3c3.74-1.81,6.35-5.12,7.67-9.76h-3.94c-20.43,0-40.87.06-61.3,0-7.81,0-14.11,2.57-18.47,9.28a7,7,0,0,1-6.52,3.32c-8.33-.14-16.67-.09-25,0a30.09,30.09,0,0,0-6.77.67C213.05,87.61,208.58,91.45,205.94,98.28Z"/><path class="cls-1" d="M147.28,73.23h25.6c4.69,0,6.71,2,6.75,6.63.14,16.34-13.88,30.54-30.2,30.56q-24.85,0-49.71,0c-5,0-7-2-7.06-7-.09-16,14-30.17,29.91-30.18Zm18.88,12.15h-3.49c-12.28,0-24.56,0-36.85,0a36.1,36.1,0,0,0-6.47.64c-6.25,1.2-12.27,6.81-13,12a3.29,3.29,0,0,0,.84.23c14,0,27.93.21,41.9,0A18,18,0,0,0,166.16,85.38Z"/><path class="cls-1" d="M377.69,267.5c-3.71,0-6.19-2.41-6.16-6a5.7,5.7,0,0,1,6-5.87c3.57,0,6.1,2.33,6.17,5.73A5.75,5.75,0,0,1,377.69,267.5Z"/><rect class="cls-2" x="0.5" y="0.5" width="443" height="443"/></g></g></svg>