<?xml version="1.0" encoding="utf-8"?>
<!-- Generator: Adobe Illustrator 25.2.1, SVG Export Plug-In . SVG Version: 6.00 Build 0)  -->
<svg version="1.1" id="Calque_1" xmlns="http://www.w3.org/2000/svg" xmlns:xlink="http://www.w3.org/1999/xlink" x="0px" y="0px"
	 viewBox="0 0 480 480" style="enable-background:new 0 0 480 480;" xml:space="preserve">
<style type="text/css">
	.st0{fill:#FFFFFF;}
</style>
<path class="st0" d="M383.8,74.5l15.2-5l15.6,48l-15.2,4.9L383.8,74.5z"/>
<path class="st0" d="M360.4,130.5l15.2-5l15.6,48l-15.2,5L360.4,130.5z"/>
<path class="st0" d="M90.6,153.8c-1.7,12.2,1.9,24.6,9.8,34l11.6,14.5V336h16V215l11.6,7.7c2.7,1.8,6.2,1.8,8.9,0l19.6-13.1l19.6,13
	c2.7,1.8,6.2,1.8,8.9,0l19.6-13l19.6,13c2.7,1.8,6.2,1.8,8.9,0l19.6-13l19.6,13c2.7,1.8,6.2,1.8,8.9,0l19.6-13l16,10.7V464H152v16
	h224c22.1,0,40-17.9,40-40V200c0-1.8-0.6-3.5-1.7-4.8l46.2-123.1c6.2-16.5,3.9-35.1-6.1-49.6C444.9,8.4,428.9-0.1,411.9,0
	c-21.7,0.2-41,13.8-48.6,34.1l-12.5,33.4L336,52.7V24c0-4.4-3.6-8-8-8h-88c-4.4,0-8,3.6-8,8v13.7c-9-8.2-22.7-8.7-32.3-1.1V24
	c0-13.1-10.6-23.7-23.7-23.7c-13.1,0-23.7,10.6-23.7,23.7v12.6c-4.4-3.6-9.9-5.6-15.6-5.6c-6.6,0-12.9,2.6-17.5,7.4
	c-9.5,9.8-9.5,25.3-0.1,35.2l7.4,7.7c-2.7,1.2-5.2,3-7.3,5.1h-0.1l-0.1,0.1c-1.9,1.9-3.4,4.1-4.6,6.5l-9.1-16.8l-14.1,7.6l20.7,38.2
	c-0.9,0.5-1.9,1-2.7,1.6c-0.3,0.2-0.6,0.5-0.9,0.7l-31-28.5l-10.8,11.8L97.3,136C93.8,141.3,91.5,147.4,90.6,153.8z M259.6,193.3
	L240,206.4l-19.6-13c-2.7-1.8-6.2-1.8-8.9,0l-19.4,12.9c0-0.8-0.2-1.5-0.2-2.3c-0.1-17.6,12.6-32.6,30-35.5
	c17.3-2.9,34.2,7.2,39.9,23.8C261.1,192.5,260.3,192.9,259.6,193.3z M280,201.1l-0.2-0.1c-1-16.8-10-32.1-24.3-41.1
	c-14.3-8.9-32-10.4-47.5-3.9v-52h72V201.1z M400,440c0,13.3-10.7,24-24,24h-32V220.3l16-10.7l19.6,13c2.7,1.8,6.2,1.8,8.9,0L400,215
	V440z M378.3,39.7c5.2-14.1,18.6-23.5,33.6-23.7c11.8,0,22.8,5.8,29.3,15.6c7.1,10.2,8.7,23.3,4.3,34.9L396,198.4l-12,8l-19.6-13
	c-2.7-1.8-6.2-1.8-8.9,0l-19.6,13l-16.2-10.8L378.3,39.7z M344.6,83.9l-42.5,113l-6.2,4.1V99.3l32-32L344.6,83.9z M248,32h72v16h-72
	V32z M243.3,64h65.4l-24,24h-65.4L243.3,64z M130.6,49.6c1.6-1.7,3.8-2.6,6.1-2.6s4.5,0.9,6.1,2.6l11.7,12c2.3,2.3,5.7,3,8.8,1.8
	c3-1.2,5-4.2,5-7.4V24c-0.1-2.8,1.3-5.5,3.8-7c2.4-1.5,5.5-1.5,7.9,0s3.9,4.1,3.8,7v32c0,3.2,2,6.2,5,7.4c3,1.2,6.5,0.5,8.7-1.8
	l11.8-12c3.4-3.3,8.8-3.3,12.2,0c3.5,3.6,3.5,9.2,0,12.8l-23.6,24l0.2,0.2l-3.7,3.7c-0.6,0.7-1.2,1.4-1.5,2.3
	c-0.1,0.2-0.2,0.5-0.3,0.8c-0.2,0.7-0.4,1.4-0.4,2.1c0,0.2-0.1,0.3-0.1,0.5v70.6c-1.8,1.7-3.5,3.6-5.1,5.6L171.8,140
	c-5.6-11.1-15.7-19.3-27.7-22.4c-2.8-0.7-5.7-1.2-8.6-1.3l-2.1-2.4c-1.6-1.8-2.8-3.3-3-3.5c-2.1-2.2-3-5.2-2.4-8.1
	c0.3-1.7,1.1-3.2,2.2-4.5l0.1-0.1l0.2-0.2c2.9-2.8,7.4-3.3,10.8-1c3.4,2.3,7.9,1.6,10.6-1.5c2.6-3.1,2.5-7.7-0.4-10.7l-21.1-21.8
	C127.1,58.9,127.2,53.2,130.6,49.6z M106.5,156c1-7.8,5.3-14.7,11.8-19.1c6.4-4.3,14.4-5.7,21.9-3.8s13.8,7,17.3,13.9l20.4,43.4
	c-0.5,1.9-0.9,3.8-1.2,5.7l-4.2-2.8c-2.7-1.8-6.2-1.8-8.9,0l-19.6,13l-17.7-11.8l-1.7-2.1l20.6-15.9l-9.8-12.7l-20.8,16.1l-1.8-2.2
	C107.7,171.7,105.4,163.8,106.5,156z"/>
<path class="st0" d="M33.1,460c6.1,12.3,18.6,20,32.3,20c5.6,0,11.1-1.3,16.1-3.8L88,473l6.5,3.2c5,2.5,10.5,3.8,16.1,3.8
	c13.7,0,26.2-7.7,32.3-20l2.8-5.6c9.4-18.8,14.3-39.5,14.3-60.5c0-23.2-18.8-41.9-41.9-41.9c-7.8,0-15.4,2.2-22.1,6.4V352
	c0-17.7-14.3-32-32-32v16c8.8,0,16,7.2,16,16v6.4c-6.6-4.2-14.2-6.4-22.1-6.4C34.8,352,16,370.8,16,393.9c0,21,4.9,41.7,14.3,60.5
	L33.1,460z M57.9,368c6.9,0,13.5,2.7,18.3,7.6l6.1,6.1c3.1,3.1,8.2,3.1,11.3,0l6.1-6.1c7.4-7.4,18.6-9.6,28.3-5.6s16,13.5,16,24
	c0,18.5-4.3,36.8-12.6,53.4l-2.8,5.6c-3.4,6.8-10.4,11.1-18,11.1c-3.1,0-6.2-0.7-9-2.1l-10.1-5c-2.3-1.1-4.9-1.1-7.2,0l-10.1,5
	c-2.8,1.4-5.9,2.1-9,2.1c-7.6,0-14.6-4.3-18-11.1l-2.8-5.6C36.3,430.7,32,412.5,32,393.9C32,379.6,43.6,368,57.9,368z"/>
</svg>
