<?xml version="1.0" encoding="utf-8"?>
<!-- Generator: Adobe Illustrator 25.2.1, SVG Export Plug-In . SVG Version: 6.00 Build 0)  -->
<svg version="1.1" id="Capa_1" xmlns="http://www.w3.org/2000/svg" xmlns:xlink="http://www.w3.org/1999/xlink" x="0px" y="0px"
	 viewBox="0 0 512 512" style="enable-background:new 0 0 512 512;" xml:space="preserve">
<style type="text/css">
	.st0{fill:#FFFFFF;}
</style>
<g>
	<g>
		<path class="st0" d="M239,495h-21.8c-0.1,0-0.1,0-0.2,0H105.6c-9.9,0-17.9-8-17.9-17.9V311.4c0-25,8.1-48.7,23.5-68.3
			c2.9-3.7,2.2-9-1.5-11.9s-9-2.2-11.9,1.5c-17.7,22.7-27.1,49.9-27.1,78.8v50.1H42.9c-4.7,0-8.5,3.8-8.5,8.5v133.6
			c0,4.7,3.8,8.5,8.5,8.5H239c4.7,0,8.5-3.8,8.5-8.5S243.7,495,239,495z M51.3,495V378.4h19.3v98.7c0,6.6,1.8,12.7,5,17.9L51.3,495
			L51.3,495z"/>
	</g>
</g>
<g>
	<g>
		<path class="st0" d="M439.9,443.7h-45.2v-38.3c0-4.7-3.8-8.5-8.5-8.5s-8.5,3.8-8.5,8.5v38.3h-21.1V142.1h21.1v235.8
			c0,4.7,3.8,8.5,8.5,8.5s8.5-3.8,8.5-8.5V110.7C394.7,49.6,345.1,0,284.1,0S173.4,49.6,173.4,110.7v48.7h-3.7
			c-12.6,0-22.9,10.3-22.9,22.9v12c-8.7,3.9-17,8.7-24.7,14.4c-3.8,2.8-4.5,8.1-1.7,11.9c2.8,3.8,8.1,4.5,11.9,1.7
			c8-6,16.8-10.9,26.1-14.5c12.8-5,26.4-7.6,40.3-7.6s27.5,2.5,40.3,7.6c20.6,8,38.2,21.9,50.9,40.2c13,18.6,19.8,40.6,19.8,63.4
			v132.3h-14.1c-20.8,0-37.7,16.9-37.7,37.7v22.1c0,4.7,3.8,8.5,8.5,8.5h202.7c4.7,0,8.5-3.8,8.5-8.5v-22.1
			C477.6,460.6,460.7,443.7,439.9,443.7z M190.4,110.7c0-51.7,42-93.7,93.7-93.7s93.7,42,93.7,93.7v14.4h-21.1v-14.4
			c0-40.1-32.6-72.7-72.7-72.7s-72.7,32.6-72.7,72.7v48.7h-21.1L190.4,110.7L190.4,110.7z M233.7,188.2c-11.3-3.2-23-4.8-34.9-4.8
			c-11.9,0-23.6,1.6-34.9,4.8v-5.9c0-3.3,2.7-5.9,5.9-5.9h58.1c3.3,0,5.9,2.7,5.9,5.9L233.7,188.2L233.7,188.2z M303.9,238.3
			c-13.5-19.4-31.8-34.5-53.2-44v-12c0-12.4-9.9-22.5-22.3-22.9v-48.8c0-30.7,25-55.7,55.7-55.7s55.7,25,55.7,55.7v250.8h-13v-50.1
			C326.8,285.1,318.8,259.8,303.9,238.3z M339.8,378.4v65.3h-13v-65.3L339.8,378.4L339.8,378.4z M460.7,495H275v-13.6
			c0-11.4,9.3-20.7,20.7-20.7h144.2c11.4,0,20.7,9.3,20.7,20.7L460.7,495L460.7,495z"/>
	</g>
</g>
<g>
	<g>
		<path class="st0" d="M198.7,228.1c-42,0-76.1,34.1-76.1,76.1s34.1,76.1,76.1,76.1s76.1-34.1,76.1-76.1S240.7,228.1,198.7,228.1z
			 M207.2,245.7c25.8,3.7,46.3,24.2,50,50h-50L207.2,245.7L207.2,245.7z M190.2,245.7v50h-50.1C143.9,269.9,164.4,249.4,190.2,245.7
			z M198.7,363.4c-29.7,0-54.4-22.1-58.5-50.7h117.1C253.1,341.3,228.4,363.4,198.7,363.4z"/>
	</g>
</g>
<g>
	<g>
		<path class="st0" d="M136.1,415.1c-17.9,0-32.4,14.5-32.4,32.4s14.5,32.4,32.4,32.4s32.4-14.5,32.4-32.4S153.9,415.1,136.1,415.1z
			 M136.1,462.9c-8.5,0-15.4-6.9-15.4-15.4s6.9-15.4,15.4-15.4s15.4,6.9,15.4,15.4S144.6,462.9,136.1,462.9z"/>
	</g>
</g>
</svg>
