<svg xmlns="http://www.w3.org/2000/svg" viewBox="0 0 368.17 207.56"><defs><style>.cls-1{fill:#2340c9;}</style></defs><g id="Calque_2" data-name="Calque 2"><g id="LOGO"><path class="cls-1" d="M53.11,138.71a48.67,48.67,0,1,0-8.88-96.94,48,48,0,0,0-18.55,5.58V12.84A12.85,12.85,0,0,0,11.38.08,13.05,13.05,0,0,0,0,13.17V90.9c0,.11,0,.21,0,.32A48.73,48.73,0,0,0,53.11,138.71ZM25.8,92.59a23,23,0,1,1,20.52,20.52A23,23,0,0,1,25.8,92.59Z"/><path class="cls-1" d="M188.9,43.25a13.05,13.05,0,0,0-11.38,13.09V91.23h0a23,23,0,0,1-46,0V56a12.85,12.85,0,0,0-14.3-12.76,13.05,13.05,0,0,0-11.38,13.1V91.06c0,.06,0,.11,0,.17h0a48.64,48.64,0,0,0,71.66,42.88v24.78a23,23,0,0,1-23,23c-9.8,0-18.22-11.36-22.75-17.47a44.7,44.7,0,0,0-4-4.92l-.08.08c-7.15-8-18.17-16.73-35.52-16.73a48.72,48.72,0,0,0-48.66,47.9c-.11,6.85,4.81,12.94,11.64,13.55a12.84,12.84,0,0,0,14-13.35c-.44-10.25,6-19.6,16.07-21.65,14.77-3,20.36,3,28.09,13.43.94,1.26,1.83,2.46,2.76,3.62a13.11,13.11,0,0,0,1.71,1.78c7.77,8.9,20,19.44,36.71,19.44a48.73,48.73,0,0,0,48.64-47.29c0-.22,0-.43,0-.65V56A12.85,12.85,0,0,0,188.9,43.25Z"/><path class="cls-1" d="M317.15,40.21c-.67,0-1.28,0-1.81,0a50.3,50.3,0,0,0-14.55,2.12C297.05,43.51,285.15,48,278,57.18a48.36,48.36,0,0,0-5.67,9.63,50.58,50.58,0,0,0-6.06,20.28c-.69,2.79-1.39,5.59-2,8.41-1.12,5.54-1.81,7.29-3.11,10a10.33,10.33,0,0,1-19.7-4.39V17.35a12.85,12.85,0,0,0-14.3-12.76,13.07,13.07,0,0,0-11.38,13.1v84.8c0,19.28,15.36,35.39,34.64,35.52,11.52.08,21.95-4.35,28.84-12.55a51,51,0,0,0,88.83-34.22C368.17,58.47,336.57,40.39,317.15,40.21Zm0,76.61a25.59,25.59,0,1,1,25.58-25.58A25.61,25.61,0,0,1,317.15,116.82Z"/></g></g></svg>