<svg xmlns="http://www.w3.org/2000/svg" viewBox="0 0 444 444"><defs><style>.cls-1{fill:blue;}.cls-2{fill:none;stroke:#fff;stroke-miterlimit:10;opacity:0.02;}</style></defs><g id="Calque_2" data-name="Calque 2"><g id="Calque_1-2" data-name="Calque 1"><path class="cls-1" d="M192.45,211.89c-2.7,2.68-5.17,5-7.47,7.48a3.07,3.07,0,0,0-.28,2.36c2.88,12.29-5.15,25.56-16.94,29.45-11.06,3.65-20.4.75-28.41-7.24q-26.89-26.81-53.71-53.69c-6.24-6.24-9.52-13.73-8.42-22.52,1.46-11.66,10.92-22,23.44-22.71,2.79-.15,5.62.27,8.42.21a4.11,4.11,0,0,0,2.5-1.19q35.58-35.47,71.08-71a17,17,0,0,1,1.6-1.58c3.94-3,5-6.5,4.64-11.67-.92-11.83,7.26-22,17.88-25.3,11-3.48,20-.22,27.88,7.62,18.19,18.19,36.47,36.3,54.53,54.62a25.52,25.52,0,0,1,3.1,32.91c-5.68,8.46-14.17,12.52-24.24,11.41-4-.44-6,.84-8.26,3.26a43.22,43.22,0,0,1-4,3.39c2.6,2.4,4.9,4.08,6.65,6.21a18.91,18.91,0,0,1,.81,23.55c-1.39,1.95-1.15,2.89.59,4.39q22.77,19.68,45.39,39.52,19.37,16.93,38.7,33.89c11,9.58,22,19.08,33,28.67,6.89,6,13.83,12,20.49,18.29,9.18,8.67,13.2,19.67,11.8,32.05a39.26,39.26,0,0,1-31.34,34.26c-15.7,3.13-28.53-2-38.9-14-11.17-12.91-22.46-25.7-33.67-38.58q-18.51-21.29-37-42.63Q258,256.8,243.6,240.36c-6.13-7-12.29-14-18.36-21.09-1-1.18-1.76-1.5-3.07-.46-9.26,7.36-23.39,4.44-28.92-5.64C193.05,212.81,192.81,212.47,192.45,211.89ZM178,207.65c.45-.43,1.06-1,1.64-1.55q35.25-35.23,70.53-70.45c1.6-1.59,1.48-2.43,0-3.94q-26-25.82-51.84-51.73c-.63-.64-1.3-1.23-1.66-1.56l-74,74Zm125.43,81.46,29.68-29.52c-.6-.55-1.37-1.31-2.18-2q-16.68-14.5-33.35-29-21.74-19-43.38-38c-1.42-1.25-2.38-1.24-3.72.14-4.52,4.67-9.15,9.22-13.75,13.81-3.74,3.74-3.74,3.73-.18,7.79.33.37.62.77,1,1.15q12.1,14,24.22,27.91,16.8,19.31,33.61,38.6C298.13,283.16,301,286.3,303.45,289.11Zm97,41.48c-.27-8-3-14.72-8.87-19.92-8.73-7.72-17.54-15.34-26.26-23.07-1.42-1.26-2.31-1.3-3.7.11q-14.94,15.1-30,30c-1.38,1.37-1.4,2.32-.14,3.75,7.52,8.57,14.85,17.3,22.49,25.77,6.22,6.9,14,10,23.45,8.82A26.76,26.76,0,0,0,400.46,330.59ZM159,239.71a24.66,24.66,0,0,0,3.66-.55c9.93-3,12.79-14.72,5.21-22.38-18.15-18.36-36.47-36.56-54.74-54.8a13.86,13.86,0,0,0-9-4.33c-5.61-.36-10.41,2.68-12.92,8a12.53,12.53,0,0,0,2.63,14.26Q122,208.14,150.2,236.23A11.48,11.48,0,0,0,159,239.71ZM283.64,114c.19-2.66-1.26-5.66-3.77-8.18q-10.65-10.72-21.35-21.39c-11.66-11.65-23.25-23.38-35-34.9-3.74-3.65-8.48-4.47-13.42-2.45A12.8,12.8,0,0,0,201.65,59c-.25,4.47,2,7.93,5,11q20.42,20.4,40.82,40.81c5,5,9.9,10.14,15.26,14.74,4.14,3.56,9.18,3.63,14,1.1C281.43,124.16,283.62,120.18,283.64,114Zm-80.33,88.68a23.81,23.81,0,0,0,.78,3c2.11,4.78,7.12,5.75,11,2,4.26-4.08,8.37-8.33,12.55-12.51q11.75-11.73,23.48-23.48c1.87-1.87,3.42-4,2.59-6.85-1.6-5.6-7.21-7.08-11.51-2.83Q224,180,206,198.22C204.76,199.51,204.08,201.37,203.31,202.66ZM343.1,268.3a45.45,45.45,0,0,1-3,3.75Q327.25,285,314.31,297.79c-1.45,1.43-1.53,2.45-.11,3.9,1.74,1.77,3.28,3.75,5,5.59,2.18,2.4,2.2,2.38,4.42.15,3.17-3.18,6.36-6.34,9.54-9.52l18.7-18.7c.89-.89,2-1.76.47-3C349.45,273.75,346.62,271.32,343.1,268.3Z"/><path class="cls-1" d="M168.92,369.37H84.42c-4.74,0-7.18-2.58-7.32-7.38-.21-7.12.14-14.1,3.62-20.58A32.88,32.88,0,0,1,92,329c1.82-1.17,2.54-1.92,1.28-4.23a22.78,22.78,0,0,1,11.13-32.32,18.85,18.85,0,0,1,7.26-1.48q57.26-.15,114.5-.06c11.14,0,21.32,10.35,21.5,21.51.07,4.61-.61,9-3.13,12.87-1.24,1.91-.17,2.62,1.18,3.51a32.81,32.81,0,0,1,14.06,19c1.57,5.41,1.08,10.89,1,16.34-.05,2.55-3.59,5.34-6.59,5.31-14.75-.15-29.5-.07-44.25-.07ZM248,356.32a38.27,38.27,0,0,0-.94-5.34c-2.94-9.11-10.19-14.51-19.81-14.52q-58.21-.07-116.43,0a20.17,20.17,0,0,0-14.15,5.26,19.07,19.07,0,0,0-6.41,14.58Zm-79.25-32.68h32c7.74,0,15.5.09,23.24,0,8.4-.12,13.33-7.85,9.47-14.78-2.28-4.08-6.15-5.31-10.58-5.31H115.14c-.58,0-1.17,0-1.75,0-8,.6-12.49,8.07-8.89,14.74,2.18,4,5.87,5.37,10.25,5.36Q141.75,323.62,168.75,323.64Z"/><path class="cls-1" d="M168.46,139.93a5.67,5.67,0,0,1-5.77-3.32c-1.11-2.11-1.26-4.47.32-6.34,2.45-2.92,5.14-5.65,7.82-8.37q9.64-9.75,19.39-19.43c1.66-1.66,3.43-3,6-3.06a6,6,0,0,1,5.65,3.42c1.16,2.15,1.27,4.63-.45,6.52-3.69,4.05-7.57,7.93-11.43,11.82q-8,8.07-16.06,16C172.4,138.76,170.81,140.28,168.46,139.93Z"/><path class="cls-1" d="M149.68,145.63c3-.08,6.47,3.27,6.65,6.38.2,3.28-3,6.59-6.46,6.66a6.37,6.37,0,0,1-6.41-6.24A6.62,6.62,0,0,1,149.68,145.63Z"/><rect class="cls-2" x="0.5" y="0.5" width="443" height="443"/></g></g></svg>