<?xml version="1.0" encoding="utf-8"?>
<!-- Generator: Adobe Illustrator 25.2.1, SVG Export Plug-In . SVG Version: 6.00 Build 0)  -->
<svg version="1.1" id="Calque_1" xmlns="http://www.w3.org/2000/svg" xmlns:xlink="http://www.w3.org/1999/xlink" x="0px" y="0px"
	 viewBox="0 0 512 512" style="enable-background:new 0 0 512 512;" xml:space="preserve">
<style type="text/css">
	.st0{fill:#FFFFFF;}
</style>
<g id="outline">
	<path class="st0" d="M368,384h28.7c9.4,0,18.4-3.7,25-10.3c3.1-3.1,3.1-8.2,0-11.3s-8.2-3.1-11.3,0c-3.6,3.6-8.5,5.7-13.7,5.7H368
		c-4.4,0-8,3.6-8,8S363.6,384,368,384z"/>
	<path class="st0" d="M392,256c-17.7,0-32,14.3-32,32s14.3,32,32,32s32-14.3,32-32S409.7,256,392,256z M392,304c-8.8,0-16-7.2-16-16
		s7.2-16,16-16s16,7.2,16,16S400.8,304,392,304z"/>
	<path class="st0" d="M472,216c-13.3,0-24,10.7-24,24s10.7,24,24,24s24-10.7,24-24C496,226.8,485.2,216,472,216z M472,248
		c-4.4,0-8-3.6-8-8s3.6-8,8-8s8,3.6,8,8S476.4,248,472,248z"/>
	<path class="st0" d="M392,144c-17.7,0-32,14.3-32,32s14.3,32,32,32s32-14.3,32-32S409.7,144,392,144z M392,192c-8.8,0-16-7.2-16-16
		s7.2-16,16-16s16,7.2,16,16S400.8,192,392,192z"/>
	<path class="st0" d="M70,496h84c5.3,0,10.6-1.1,15.5-3.3c1.5,2.1,3.9,3.3,6.5,3.3h280c3.7,0,6.9-2.5,7.8-6.1l6.5-25.9h9.8
		c4.4,0,8-3.6,8-8v-32c0-4.4-3.6-8-8-8h-20.3c17.7-19.7,16-50-3.7-67.7c-8.8-7.9-20.2-12.3-32.1-12.3h-80V183
		c0-27.7-20.6-51-48-54.5V104c0-4.4-3.6-8-8-8V32c0-4.4-3.6-8-8-8h-78c-9.9,0-18,8.1-18,18v14c0,4.4,3.6,8,8,8h32v32
		c-4.4,0-8,3.6-8,8v24.5c-27.4,3.6-48,26.9-48,54.5v83.7c-4.5-1.8-9.2-2.7-14-2.7c-5.5,0-10-4.5-10-10v-6c4.4,0,8-3.6,8-8v-32
		c0-4.4-3.6-8-8-8H80c-4.4,0-8,3.6-8,8v32c0,4.4,3.6,8,8,8v6c0,5.5-4.5,10-10,10c-21,0-38,17-38,38v156C32,479,49,496,70,496z
		 M184,278.7V256h80v112h-72v-66C192,293.6,189.2,285.4,184,278.7z M449.8,480H344v-16h109.8L449.8,480z M472,448H344v-16h128V448z
		 M424,352c17.7,0,32,14.3,32,32s-14.3,32-32,32h-80v-64H424z M232,112h48v16h-48V112z M200,48v-6c0-1.1,0.9-2,2-2h22v8H200z
		 M240,40h32v56h-32V40z M223,144h66c21.5,0,39,17.5,39,39v297H185c4.6-6.4,7.1-14.1,7-22v-74h80c4.4,0,8-3.6,8-8V248
		c0-4.4-3.6-8-8-8h-88v-57C184,161.5,201.5,144,223,144z M88,216h48v16H88V216z M70,280c14.4,0,26-11.6,26-26v-6h32v6
		c0,14.4,11.6,26,26,26c12.1,0,22,9.9,22,22v156c0,12.1-9.9,22-22,22H70c-12.1,0-22-9.9-22-22v-18h72c4.4,0,8-3.6,8-8V320
		c0-4.4-3.6-8-8-8H48v-10C48,289.9,57.9,280,70,280z M48,328h64v96H48V328z"/>
	<path class="st0" d="M304,392c4.4,0,8-3.6,8-8v-8c0-4.4-3.6-8-8-8s-8,3.6-8,8v8C296,388.4,299.6,392,304,392z"/>
	<path class="st0" d="M304,448c4.4,0,8-3.6,8-8v-24c0-4.4-3.6-8-8-8s-8,3.6-8,8v24C296,444.4,299.6,448,304,448z"/>
</g>
</svg>
