<svg xmlns="http://www.w3.org/2000/svg" viewBox="0 0 1410 1025.41"><defs><style>.cls-1{fill:#f1f1f1;}.cls-2{fill:#c8cfd6;}.cls-3{fill:#cad2d9;}.cls-4{fill:#b0b8c3;}.cls-5{fill:#e3e3e3;}.cls-6{fill:#f1a84e;}.cls-7{fill:#294399;}.cls-8{fill:#1a197d;}.cls-9{fill:#d97c34;}.cls-10{fill:#997a55;}.cls-11{fill:#1b1a46;}.cls-12{fill:#e4c8ac;}.cls-13{fill:#e2c6aa;}.cls-14{fill:#d99746;}.cls-15{fill:#cab39b;}.cls-16{fill:#e2c7ab;}.cls-17{fill:#ddc2a8;}.cls-18{fill:#3241c1;}.cls-19{fill:#1c2281;}.cls-20{fill:#d87035;}.cls-21{fill:#2c1e1b;}.cls-22{fill:#f1904e;}.cls-23{fill:#d87d35;}.cls-24{fill:#ea9978;}.cls-25{fill:#c4a97a;}.cls-26{fill:#efd2bb;}.cls-27{fill:#cc999a;}.cls-28{fill:#f2975e;}.cls-29{fill:#1a1945;}.cls-30{fill:#3b407e;}</style></defs><g id="Calque_2" data-name="Calque 2"><g id="Calque_1-2" data-name="Calque 1"><path class="cls-1" d="M1092.2,217.86c0,31.83-.11,351.66-.16,383.49-8.34-.86-16.63-.83-24.8,1.34-.07-18.32-.15-324.65-.22-343,0-9.41-5.17-14.53-14.66-14.54q-40.87,0-81.74,0c-10.8,0-15.64,4.78-15.64,15.45q0,49.19,0,98.36c0,10.76,5.6,16.35,16.41,16.37,21.52,0,83.05,0,104.58,0a57.46,57.46,0,0,1-1.69,12.1c-21.68,0-83.36-.05-105,0-8.38,0-14.21,5.48-14.21,13.64q-.06,77.64.07,155.27c-10,8.66-20,17.18-29,27-2.12-1.18-1.39-3.24-1.42-5-.15-8.34-2.07-10.27-10.44-10.27H687.75c-2.36,0-4.71.14-7.06.21l-1.24-1.07-.89-13.32q118.49,0,237,0a8.85,8.85,0,0,0,9.14-9.07q.06-21.67,0-43.35c0-5.15-2.92-8.09-8-8.1q-102.36,0-204.71-.05c-2.14,0-4,.31-5.34,2.06-1.5-5.59-1.24-11.4-2.15-17.06,9.86,0,19.72-.08,29.59-.09H879.13c12.39,0,24.77,0,37.16,0,5.54,0,8.38-2.78,8.39-8.24q.06-21.43,0-42.86c0-6.56-2.93-9.43-9.61-9.43H591.24c-7,0-9.72,2.7-9.73,9.75q0,20.92,0,41.85c0,6.27,2.57,8.92,8.72,8.93,13.89,0,27.79,0,41.69,0a66.17,66.17,0,0,0,0,15.15q-17.64,0-35.27,0c-2.2,0-4.37-.05-6.34,1.13a1.43,1.43,0,0,1-.65,0c-2.1-1.48-4.06-2.23-5.2,1.06-10.67,8-21.4,16-31.22,25.1q0-22.68,0-45.36c0-1.78.57-3.74-1-5.25a22.29,22.29,0,0,0,1.07-7.36c-.06-19.7,0-39.4,0-59.1V389.5q0-10.58,0-21.15c.28-3.59.08-6.83-3.48-9.17-2.09-1.38-2.49-4.25-.27-5.57,4-2.37,3.93-5.79,3.74-9.52l0-20.34c0-1.85,0-3.7,0-5.55-.13-9.77,1.27-8.43-8.66-8.44q-77.72-.06-155.42-.07c-1.95,0-4.54,1.2-5.67-1.77,2.18-.05,4.37-.16,6.55-.16q78.66,0,157.33.09c4.47,0,6.07-1,6-5.78-.29-19.66-.13-39.33-.14-59q0-7.44,0-14.88l0-10.26H829.79Q961,217.91,1092.2,217.86ZM752.55,328.94H914.49c6.73,0,10.2-3.41,10.2-10.06q0-27.74,0-55.48c0-6.32-2.39-9-8.52-9.1-9.76-.07-19.48-.76-29.28-.2-11.4.66-22.85-.61-34.32.05-10.23.58-20.49-.64-30.79,0-11.07.66-22.18-.63-33.31,0-10.57.62-21.17-.62-31.8,0s-21.5-.62-32.31,0-21.5-.62-32.3,0-21.5-.62-32.3,0-21.51-.65-32.31,0c-10.56.64-21.19-1.12-31.79.1a14.3,14.3,0,0,1-3.52-.08c-7.61-1-10.62,1.47-10.63,9.07q0,27.74,0,55.48c0,7.79,2.42,10.23,10.1,10.23Zm.73,14.13H590.33c-5.7,0-8.76,2.83-8.8,8.48q-.13,21.69,0,43.37c0,5.79,3,8.68,8.61,8.68H915c7,0,9.65-2.74,9.66-9.82q0-20.43,0-40.85c0-7.4-2.54-9.87-10-9.87Z"/><path class="cls-2" d="M1092.2,217.86q-131.21,0-262.41.07H553.24c-.13-4.69-1.46-9.3-.91-14,.35-3-.42-4.7-3.54-6.11a12.93,12.93,0,0,1-6.6-16.94c2.69-6.25,8.94-8.94,16-6.42,4,1.43,8,.76,12,1.08,3.25.26,4.51-.88,4.38-4.25-.22-6.05-.06-12.11-.06-18.16,0-8.22-1.71-9.89-10.1-9.89H388.73a21.31,21.31,0,0,0-4.53.13c-3.15.72-5.64,2.23-5.64,6q0,36.33,0,72.65a5.6,5.6,0,0,0,4.53,5.88c4.56,1,9.22,1.75,14,.61,3.3-.8,6.68-.28,10-.23,7.62.1,15.24,0,22.86,0,8.17,0,16.37-.46,24.5.12,7.16.52,14.3,0,21.42,0,8.95.07,18,.11,27-.06,6.91-.12,14,.2,20.9.21,9.8,0,19.66.06,29.48-.4q0,7.44,0,14.88l-163.47,0a31.35,31.35,0,0,0-5,.08c-3.65.6-6.19,2.28-6.17,6.57q.09,26.23,0,52.46c0,3.39,1.37,5.45,4.93,5.68,1.13,3,3.72,1.76,5.67,1.77q77.72.09,155.42.07c9.93,0,8.53-1.33,8.66,8.44,0,1.85,0,3.7,0,5.55-8.93-2.05-17.91.29-26.92-.18-6.21-.33-12.68-1.53-18.88-.42-7.5,1.36-15.11,1-22.36.27-8.23-.83-16.27.63-24.44.17-6-.33-12.24-1.39-18.4-.51-8.43,1.21-16.86.56-25.31.12-3.56-.19-7.82-2.09-10.53,2.26-4.95-5-11.22-7.72-17.77-9.84-9.87-3.19-20.18-2.76-30.34-3.49-2.76-.19-4.69-.9-4.73-3.85-.09-6.7-3-12.58-5.15-18.7,1.83-1.83,1-4.15,1-6.23q.08-86.74,0-173.49c0-11.22,5.81-17,17.08-17,73.82,0,147.64.11,221.46-.12,9.95,0,17.26,6.92,17,16.71-.58,19.32-.17,38.66-.17,58,0,8.05,0,8.05,7.85,8.05h371.8q46.41,0,92.82,0c9,0,15,6.07,15,15.12S1092.22,208.79,1092.2,217.86ZM484.12,125.11c4.86,0,9.73,0,14.59,0,2.28,0,4-.64,4.07-3.3.11-2.86-1.46-3.81-4.08-3.8q-14.08.06-28.16,0c-2.43,0-4.68.74-4.82,3.31-.16,3,2.21,3.77,4.83,3.77ZM597.7,206.87c4.66,0,7-2.14,7-6.48,0-3.87-3.38-7.57-7-7.59-3.43,0-7.06,3.58-7.08,7C590.59,204.36,593.12,206.88,597.7,206.87Zm21,0c4.74.07,7.14-2,7.26-6.32.11-4-3.25-7.68-7-7.75-3.47-.07-7,3.47-7.13,7.2C611.68,204.08,614.39,206.8,618.68,206.87Zm-42.42,0c4.51,0,7.16-2.33,7.23-6.48.06-3.69-3.24-7.4-6.75-7.59s-7.33,3.5-7.36,7.36C569.34,204.55,571.66,206.82,576.26,206.87Zm-28-21c-.07,2.26.85,4.22,3.07,4.52,2.77.37,1.55-2.29,2.1-3.62.38-.92.75-1.85,1.14-2.77s1-1.89.15-2.77a3,3,0,0,0-3.31-.42C549,181.59,548,183.42,548.21,185.87Zm-94.58-67.82c-2.93-.11-4.24.91-4.34,3.46a3.69,3.69,0,0,0,3.52,4.11,4,4,0,0,0,4.27-4C457.24,119.34,455.35,118.26,453.63,118.05Z"/><path class="cls-2" d="M610,803c14.2,15.33,32.06,21.78,52.59,21.57,10.36-.1,20.71-.53,31.06-.81,1.23,13.31,2.53,26.61,3.65,39.93.89,10.51,1.45,21,2.32,31.55,1.19,14.49,2.61,29,3.79,43.46.87,10.68,1.41,21.38,2.29,32.06,1.16,14.16,2.2,28.34,3.87,42.44,1.34,11.32,1.11,12-10,12l-52.46,0a45.35,45.35,0,0,1,.46-4.94c1.18-5.8-.71-8.37-6.63-9.16-4.27-.57-8.71-.83-12.71-2.25-3.24-1.15-7.3-1.13-9.51-4.59.24-.58.74-1.19.68-1.74-1.16-10.44-2.45-20.86-3.6-31.3-1.76-16.08-3-32.24-5.27-48.25-3.16-22-4.8-44.1-7.79-66.08-2.38-17.51-4.1-35.11-6.11-52.67C601.11,803.61,605.76,805.49,610,803Z"/><path class="cls-2" d="M135.59,0q33.28,0,66.56,0c7.49,0,9.93,2.46,9.94,9.87q0,41.34,0,82.67c0,6.91-2.4,9.3-9.32,9.34-4.2,0-8.41-.07-12.6.07-35.09,1.19-70.19.77-105.29.92a187.52,187.52,0,0,1-19.55-1c-4.19-.41-6.63-3.67-6.65-9.1q0-27.73,0-55.45,0-13.11,0-26.21C58.66,2.25,60.86,0,69.54,0ZM97.45,100.9h20.69c1.83,0,3.6.17,4.94-1.7,6-8.29,12-16.5,18.09-24.71,1-1.33,1.5-2.45.51-4.08C134,57.81,126.45,45.17,118.77,32.59c-1.74-2.83-3.3-2.64-5,.39-2.35,4.05-4.72,8.1-7.15,12.09C95.93,62.49,85,79.76,74.23,97.07c-1.57,2.52-1.57,3.93,2,3.86C83.32,100.8,90.39,100.89,97.45,100.9Zm80.77-52.51a14.42,14.42,0,0,0,14.62-14.12c0-7.57-6.46-13.84-13.94-14.23-8.5-.43-15,5.73-15,14.06C163.94,41.75,169.18,48.46,178.22,48.39Z"/><path class="cls-2" d="M167.59,848.81c12.56.45,25.1,1.06,37.59,2.54l-15.94,20.8c1.67,1.18,3.2.74,4.6.75,16.15,0,32.3.15,48.44-.07,4.48-.06,6.47,1,6.12,5.9-1.54,21.15-.77,42.58-8,63-7.91,22.36-25.78,35-49.37,36.35-10.51.61-20.77.27-30.85-2.09-21.9-5.13-33.35-20.5-38.89-41.23-.56-2.09-.79-4.27-1.17-6.4,4.59-.73,6.32-3.3,6.26-8-.09-5.63-.81-11.31.62-16.94,2.56-10.15,4.91-20.36,7.34-30.54,11.22,0,22.45-.17,33.66.12,4.84.12,5.38-2,4.36-5.81C170.74,861.08,169.18,854.94,167.59,848.81Z"/><path class="cls-3" d="M215.15,794.81c-15.09,6.9-31,11.69-46.45,17.59-4.67,1.79-9.44,3.33-14.16,5-2.36-9.22-7.48-17.19-11.95-25.38-10.17-18.66-23.48-35.07-38.2-50.25-9.21-9.5-19.27-18.18-28.93-27.26A12.35,12.35,0,0,1,72.24,710c30.16,15.35,58.42,33.27,81.89,58.31-6-27.28-15.34-53.34-24.39-79.5s-20.44-51.55-32-76.84c15.72,24.8,31.46,49.53,45.71,75.17-4.27,3.5-5.54,7.09-2.9,9.38,3.19,2.78,6.39,5.86,11.1,5.92q8,17.74,16,35.5l1.2-.44-5.34-35.09c4.13-.71,7.65-3.71,12.1-3.22,4.07,19.51,8.81,38.88,12.51,58.47a17.75,17.75,0,0,0,1.47-4.48c3.16-15.26,8.92-29.75,13.32-44.65,4.79-.22,2.62-3.89,3.1-6.24,9.56-24.54,19.59-48.79,41.17-67.93-23.55,49.13-29.42,102-45.83,151.92,8.22-16.47,19.18-30.85,31.85-43.72s27.35-23.09,45.91-29.71c-3.93,5.59-8.84,7.77-12.6,11.29-16.38,15.35-30.59,32.45-41.62,52C221.42,782.28,216.94,787.86,215.15,794.81Z"/><path class="cls-3" d="M255.56,271.7c-14.74,4.64-29,3.9-42.7-3.65q-7.05-3.9-14-8c-14.07-8.51-28.84-10.15-44.38-4.75-.51-6.83-3.08-13.31-3-20.27,0-8.56,2.91-16,7.67-23a8.6,8.6,0,0,1,4-2.93,64.57,64.57,0,0,1,22.75-5.44,136.09,136.09,0,0,1,68.44,15c20,10.17,39.35,21.76,53.49,40,.91,1.18,2.26,2.08,2.06,3.84-17.16-1.67-33.31,2.82-49.34,8a2.59,2.59,0,0,0-2-2.6c-4.29-1.41-6-4.43-6.87-8.8s-1.54-8.82-4.65-12.33c0,5.51,1.7,10.66,3.23,16.25-5.21-.91-8.71-4.82-13.75-4.71a154.4,154.4,0,0,0,13.91,9.16C252.34,268.69,255.19,268.67,255.56,271.7Z"/><path class="cls-1" d="M1391.09,611.7a43.11,43.11,0,0,1-25.49,9.8c-19.12,1.15-34.49-6.42-44.79-22.43-8.84-13.74-10.25-28.48-3.18-43.93,7.8-17,26.27-28.63,44.32-28.29q-.1,15.58-.19,31.17c-8.14.15-13.34,3.53-16.12,10.49a15.92,15.92,0,0,0,3.88,17.09c6.26,5.9,13.49,6.62,21.32,3.7,3.3,2.62,5.46,6.24,8.22,9.33C1383,603.05,1385.59,608.72,1391.09,611.7Z"/><path class="cls-2" d="M325.4,361.2c4.25,13.28,14.11,20,27.07,23-.22,4.35-.18,8.77-3.11,12.44-11,9.82-24,15.71-38.19,18.92-12.53,2.84-25.15,2.72-37.49-1.67-6.77-2.42-12.39-6.62-17.6-11.32-3.8-3.43-3.37-6.45,1.43-10.42a181.66,181.66,0,0,1,27.65-19c8.37-4.63,16.79-9,26.24-11.16C316.08,360.87,320.74,361.51,325.4,361.2Z"/><path class="cls-1" d="M1148.78,108.87c-12.56,10.43-33.89,9.21-46.78-1.48-13.36-11.08-16-28.51-10.1-43,4.57-11.23,21.4-22.64,33.84-21q0,12,.07,23.94c-7.51.5-12,4.57-12.35,11.14-.31,6.29,4.56,11.79,10.78,13.5,4.16,1.13,7.45-1.23,11.21-1.32.25,1.77,1.64,2.77,2.66,4C1141.77,99.39,1145.76,103.77,1148.78,108.87Z"/><path class="cls-4" d="M553.37,997.07c-4.3-.77-5.88,1.24-7.45,5.26-3,7.71-.23,15.27-.82,22.85l-36.28,0c-2,0-4.05.5-3.25-3.06,4.32-19.09,8.41-38.23,12.64-57.34a10.93,10.93,0,0,1,1.39-2.63c3.84,3.24,6.58,7.43,9.59,11.34,2.46,3.21,4.76,4.62,8.66,2.57,1.54-.81,3.5-.82,5.26-1.2C546.48,982.31,551.39,989,553.37,997.07Z"/><path class="cls-3" d="M335.15,321.66c-1,1.41-1.66,3.28-3.78,3.55-3.65-4.2-8.63-6.7-13-10-1.67-1.28-3.69-.28-5.47,1.09-17.87,13.66-38,17.93-60,14.35-12.9-2.1-24.63-7.21-36.14-13-1.61-.81-3.51-1.38-3.91-3.56,9.05-6.22,18.79-10.82,29.68-12.81a9.4,9.4,0,0,1,7.67,1.59c18,14.1,37.86,13.3,58.41,7.43,2.71-.77,5.55-1.11,8.34-1.66C322.34,313.89,328.91,317.55,335.15,321.66Z"/><path class="cls-4" d="M1361.76,558q.09-15.59.19-31.17c25.71.48,45.2,19.8,47.27,43.27-1.49,1.19-.58,1.71.6,2.14,0,.59,0,1.17,0,1.76l-31.09.15C1376.76,564.91,1371.54,559.06,1361.76,558Z"/><path class="cls-2" d="M1079.08,737.4c4.35,8.51,6.4,17.85,9.67,26.75,4.52,12.35,8.82,24.78,13.21,37.18-1.7-.87-2.91-2.31-5.26-2.32-13.51-.06-27,.79-40.53-.74,6.24-16.82,12.41-33.67,18.78-50.44C1076.28,744.34,1076.06,740.22,1079.08,737.4Z"/><path class="cls-3" d="M1222.24,535.76c-6-12.61-12.19-25.07-18.93-37.27a134.88,134.88,0,0,1,53.42,21.94c4.76,3.22,8.16,8,10.82,13.07,2.5,4.77.76,7.69-4.61,7.23-7.13-.62-14.22-1.86-21.28-3.15A86.27,86.27,0,0,0,1222.24,535.76Z"/><path class="cls-4" d="M63.68,507.56c-2.6,23-29.09,35.24-47.87,24.09-2.42-1.43-6.7-1.4-6.51-5.91l22-21.35C33,505.62,35,505.55,37,505.54c7.14,0,14.28.06,21.42-.05C60.58,505.45,62.35,505.83,63.68,507.56Z"/><path class="cls-2" d="M1378.74,574.17l31.09-.15c-.39,15.47-5.74,28.47-18.74,37.68-5.5-3-8.09-8.65-12-13.07-2.76-3.09-4.92-6.71-8.22-9.33A100.23,100.23,0,0,0,1378.74,574.17Z"/><path class="cls-4" d="M1125.81,67.41q0-12-.07-23.94c14.94-2.3,36.07,13,36.31,30.35,0,2,1.36,3.79,1,5.88l-23.44.08C1137.56,72.8,1133.74,67.81,1125.81,67.41Z"/><path class="cls-3" d="M168.76,673.94c-2.57,3.19-6.18,4.41-10,5.27-2.52-13.63-4.85-27.31-7.6-40.9-6.71-33.09-13.48-66.16-21.53-99a14.65,14.65,0,0,1,0-2.56c2.9,2.41,2.66,5.47,3.43,8,12.73,40.94,24.17,82.25,34.84,123.77A54.28,54.28,0,0,1,168.76,673.94Z"/><path class="cls-1" d="M31.27,504.39l-22,21.35c-2.82-.37-4-2.37-5.26-4.7-5.12-9.79-5.33-19.65-.89-29.68,8.51,2.43,16,7.62,25.32,10.13-4-9.05-7.57-17.15-11.15-25.24,4.43-1.06,8.86-2.08,13.27-3.21,1.53-.39,3.15-1.67,3.88,1-2.84.73-2,3.06-2.11,4.94C31.82,487.41,33.51,496,31.27,504.39Z"/><path class="cls-2" d="M31.27,504.39c2.24-8.41.55-17,1.09-25.45.12-1.88-.73-4.21,2.11-4.94,17.43.36,28.33,14.66,30.15,30.87a2.67,2.67,0,0,1-.94,2.69c-1.33-1.73-3.1-2.11-5.24-2.07-7.14.11-14.28,0-21.42.05C35,505.55,33,505.62,31.27,504.39Z"/><path class="cls-2" d="M1332.57,113.5c0,13.11-.06,26.21,0,39.31,0,3.18-.4,6.15-4.14,6.15s-4.15-3-4.15-6.14q.11-39.31,0-78.62c0-3.16.41-6.15,4.15-6.16s4.16,3,4.14,6.15C1332.52,87.3,1332.57,100.4,1332.57,113.5Z"/><path class="cls-2" d="M1288.12,120.57c0,10.75-.06,21.5,0,32.25,0,3.18-.42,6.16-4.16,6.14s-4.12-3-4.11-6.18q.1-32.75,0-65.51c0-3,0-6.26,3.88-6.4,4.23-.16,4.34,3.24,4.33,6.44C1288.1,98.4,1288.12,109.49,1288.12,120.57Z"/><path class="cls-3" d="M1301.16,126c0-9.08,0-18.16,0-27.24,0-3,.5-5.79,4-5.77,3.33,0,5,2.43,5,5.73q0,27.5,0,55c0,3.35-1.69,5.64-5.17,5.48-3.15-.15-3.9-2.61-3.88-5.44C1301.19,144.53,1301.16,135.28,1301.16,126Z"/><path class="cls-2" d="M1139.57,79.78,1163,79.7c1.73,8.17-2.07,14.89-6.06,21.37-2,3.18-4.11,6.61-8.17,7.8-3-5.1-7-9.48-10.67-14.09-1-1.28-2.41-2.28-2.65-4C1137,87.16,1140.83,84.41,1139.57,79.78Z"/><path class="cls-2" d="M1264.91,125.92c0,9.06-.08,18.12,0,27.18,0,3-.58,5.75-3.93,5.86-3.7.13-4.36-2.68-4.34-5.93.08-17.95,0-35.91,0-53.86,0-3.06.26-6.17,4.15-6.14s4.09,3.16,4.08,6.21C1264.88,108.13,1264.91,117,1264.91,125.92Z"/><path class="cls-4" d="M305.23,438l-25.59,23.44c-6.17-5.7-7.51-13.47-8.65-21.17-.35-2.38,1.43-4.32,4.41-4.35C285.4,435.86,295.42,435.35,305.23,438Z"/><path class="cls-2" d="M17.32,476.25c3.58,8.09,7.15,16.19,11.15,25.24-9.34-2.51-16.81-7.7-25.32-10.13C.27,489.71-.22,487.83,1.93,485c3-3.88,5.9-7.6,10.4-9.82C14.43,474.12,16.11,473.82,17.32,476.25Z"/><path class="cls-3" d="M1241.7,138.82c0,5-.11,10.08,0,15.11.09,2.84-1.15,4.63-3.75,5.14-3,.59-3.93-1.68-4.73-4.06-1.09-3.3-.55-6.67-.6-10-.1-6.38-.11-12.76,0-19.14.06-3.3,1.07-6,5.23-5.84s3.8,3,3.81,5.69Q1241.71,132.28,1241.7,138.82Z"/><path class="cls-4" d="M880.4,1025.18c1.49-1.64,3.45-.89,5.18-.91q16.5-.11,33,0a16.71,16.71,0,0,0,6.8-1.13l.51,2Z"/><path class="cls-2" d="M268.58,850.57a1.5,1.5,0,0,1,2.18-.24C270.16,851.55,269.47,852,268.58,850.57Z"/><path class="cls-2" d="M1409.82,572.26c-1.18-.43-2.09-1-.6-2.14A1.59,1.59,0,0,1,1409.82,572.26Z"/><path class="cls-2" d="M411.53,470.39c8.06-.08,16.12-.21,24.19-.22q58.23-.07,116.48-.1c1.58,1.51,1,3.47,1,5.25q.06,22.68,0,45.36c-5,3.65-11,4.93-16.48,7.31-2-1.94-4-.68-6,0-10.64,3.47-21,7.94-32,10,.53-1.4,1-2.84,1.6-4.18,4.65-9.81,3.17-22.46-3.53-29.71-8.45-9.15-18.72-11.91-30-7.49-10.17,4-19.1,14.81-16.71,29.31,1,6.08,4.35,10.7,7.48,15.58-8-1.24-14.33-4.7-18.72-11.89a148.76,148.76,0,0,1-9.22-16.67C423.26,498.86,416.65,484.94,411.53,470.39Z"/><path class="cls-2" d="M553.24,403.61l-144.43-.09q2.06-7,4.12-14l140.31,0Z"/><path class="cls-3" d="M553.25,368.35c-7.44-.1-11.87-4.28-12.12-11.44-.27-7.66,4.09-12.27,12.11-12.82.19,3.73.25,7.15-3.74,9.52-2.22,1.32-1.82,4.19.27,5.57C553.33,361.52,553.53,364.76,553.25,368.35Z"/><path class="cls-1" d="M597.7,206.87c-4.58,0-7.11-2.51-7.09-7,0-3.45,3.65-7.05,7.08-7,3.65,0,7.07,3.72,7,7.59C604.66,204.73,602.36,206.85,597.7,206.87Z"/><path class="cls-1" d="M618.68,206.87c-4.29-.07-7-2.79-6.84-6.87.15-3.73,3.66-7.27,7.13-7.2,3.72.07,7.08,3.8,7,7.75C625.82,204.84,623.42,206.94,618.68,206.87Z"/><path class="cls-1" d="M576.26,206.87c-4.6-.05-6.92-2.32-6.88-6.71,0-3.86,3.73-7.56,7.36-7.36s6.81,3.9,6.75,7.59C583.42,204.54,580.77,206.91,576.26,206.87Z"/><path class="cls-1" d="M548.22,185.87c-.19-2.45.76-4.28,3.14-5.06a3,3,0,0,1,3.31.42c.84.88.24,1.85-.15,2.77s-.76,1.85-1.14,2.77c-.55,1.33.67,4-2.1,3.62C549.06,190.09,548.14,188.13,548.22,185.87Z"/><path class="cls-1" d="M453.63,118.05c1.72.21,3.61,1.29,3.45,3.59a4,4,0,0,1-4.27,4,3.69,3.69,0,0,1-3.52-4.11C449.39,119,450.7,117.94,453.63,118.05Z"/><path class="cls-2" d="M1017.43,621.59c-6.71,0-13.44-.31-20.12.07-5.35.3-9.08-1.36-11.17-6.35,10-9.58,20.06-19,28.92-29.63,2.42-2.92,4.13-6.48,7.44-8.64,1.39,1,.56,2.1,0,3.07C1015.48,593.28,1013.64,607.08,1017.43,621.59Z"/><path class="cls-1" d="M1184.38,630.59h-8.69c.28-7.24,1.81-14.39,1.72-21.72C1180,616.07,1183.11,623,1184.38,630.59Z"/><path class="cls-4" d="M279.43,572.11l-3.56,1.22c.5-3.79,3.37-6.24,5.46-9.24A18,18,0,0,1,279.43,572.11Z"/><path class="cls-4" d="M618.77,1004.24c-9.21-2.15-17.17-7.32-25.88-10.66a36.38,36.38,0,0,1-7.3-3.27c-4.39-2.93-7.22-1.95-9.05,2.8a118.46,118.46,0,0,1-10.25-25.21c7.5-3.46,7.5-3.46,4.77-11.53q-14.25-42.11-29.91-83.7c-.51-1.35-1.57-2.62-1.06-4.25.83-5,3.09-9.61,3.16-14.74,3.27.65,4.69,3.61,6.9,5.57a6,6,0,0,0,7,1.07c2.12-1.21-.38-3.16-.83-4.74a52.89,52.89,0,0,0-2.57-6c-3.57-8.59-6.13-17.06-2.78-26.63,2.13-6.08,4.93-12.1,5.42-18.7l36.59-.2,3.73.12c2,17.56,3.73,35.16,6.11,52.67,3,22,4.63,44.11,7.79,66.08,2.3,16,3.51,32.17,5.27,48.25,1.15,10.44,2.44,20.86,3.6,31.3C619.51,1003.05,619,1003.66,618.77,1004.24Z"/><path class="cls-1" d="M533.42,851.79c3.65-1.3,7.27-2.45,9.83,1.89-.07,5.13-2.33,9.78-3.16,14.74A63.23,63.23,0,0,1,533.42,851.79Z"/><path class="cls-1" d="M593.62,781.5l4.78.52c2.42,7.8,7.17,14.31,11.62,21-4.26,2.48-8.91.6-13.34,1.19l-3.73-.12c-.15-5.82-.34-11.63-.45-17.45C592.47,784.86,591.94,782.92,593.62,781.5Z"/><path class="cls-1" d="M1005.6,730.57l-195.81.06c.63-2.51-1.34-3.5-2.8-4.81-8.29-7.47-17.38-14-24.87-22.39l133.62-.1c5.55,0,8.85-2.68,8.9-7.85.14-14.78,0-29.57.09-44.35,0-2.35-.82-3.48-3.19-3.37,3.55-8.37,9.81-14.16,17.59-18.51,5.25.88,10.71-.24,15.86,1.64q0,26.42,0,52.84c0,9.07,5.49,14.52,14.75,14.55,14.26,0,28.52,0,42.78,0A323,323,0,0,1,1005.6,730.57Z"/><path class="cls-2" d="M1017.38,675.13c-7.37,0-14.74,0-22.11-.07-5.65,0-8.54-2.29-8.79-7.91-.34-7.85-.35-15.75,0-23.6.26-5.55,3.18-7.76,9-7.79,10.06,0,20.11,0,30.16,0C1023.36,649,1020.57,662.08,1017.38,675.13Z"/><path class="cls-2" d="M1015.53,684.15c-1.38-1.13-.75-1.72.58-2.11A1.68,1.68,0,0,1,1015.53,684.15Z"/><path class="cls-2" d="M1016.59,679.12c-1.4-1.14-.83-1.74.58-2.12A1.74,1.74,0,0,1,1016.59,679.12Z"/><path class="cls-1" d="M1004.6,735.68c-1.66-1.25-.86-1.77.62-2.09A1.85,1.85,0,0,1,1004.6,735.68Z"/><path class="cls-1" d="M335.15,321.66c-6.24-4.11-12.81-7.77-18.2-13.08A49.28,49.28,0,0,1,342.1,307a15.18,15.18,0,0,1,6.79,3.06c1.83,1.5,2.34,3-.57,3.72C343.12,315.08,339.24,318.53,335.15,321.66Z"/><path class="cls-1" d="M255.56,271.7c-.37-3-3.22-3-5.11-4.16a154.4,154.4,0,0,1-13.91-9.16c5-.11,8.54,3.8,13.75,4.71-1.53-5.59-3.2-10.74-3.23-16.25,3.11,3.51,3.76,8.1,4.65,12.33s2.58,7.39,6.87,8.8a2.59,2.59,0,0,1,2,2.6A9.94,9.94,0,0,1,255.56,271.7Z"/><path class="cls-4" d="M97.45,100.89c-7.06,0-14.13-.09-21.19,0-3.6.07-3.6-1.34-2-3.86,10.81-17.31,21.7-34.58,32.34-52,2.43-4,4.8-8,7.15-12.09,1.75-3,3.31-3.22,5-.39C126.45,45.17,134,57.81,141.68,70.4c1,1.63.47,2.75-.51,4.08C135.1,82.69,129,90.9,123.08,99.19c-1.34,1.87-3.11,1.7-4.94,1.7Q107.79,100.91,97.45,100.89Z"/><path class="cls-2" d="M1035.94,426.67c-1.78,1.4-1.15,3.39-1.17,5.16-.06,7.05,0,14.1,0,21.15,0,4.8-2.85,8-7.66,8-10.74.17-21.49.15-32.24,0-4.22-.06-7.89-1.83-8.12-6.56-.47-9.68-1.09-19.4.44-29.08.62-3.89,3.28-5.59,6.69-5.52,13.23.26,26.49-1.16,39.67.87Z"/><path class="cls-3" d="M1049,335.57a.89.89,0,0,1-.78.45c-22.41,0-48.7-.06-71.05,0-3,0-5.22-.86-6.37-3.78-.91-2.33.52-3.82,1.94-5.27,1.18-1.22,2.77-1,4.27-1l66,.12c4.83,0,8.24,5.11,6,9.41Z"/><path class="cls-2" d="M1034.06,390.55l-.87-.65,1.08-.51C1034.57,389.85,1034.62,390.25,1034.06,390.55Z"/><path class="cls-2" d="M410.81,343.29l70.06-.19c3.62,0,5.79,1.59,5.76,5.33s-2.38,4.73-5.72,4.72q-34-.07-68.05-.06A20.52,20.52,0,0,1,410.81,343.29Z"/><path class="cls-3" d="M413.86,359.42c11.6-.05,23.19-.13,34.78-.12,3.55,0,7.45-.25,7.69,4.92.18,3.93-2.57,6-8.1,6-11.43,0-22.86,0-34.28,0Z"/><path class="cls-3" d="M718.32,276.44h111c5.52,0,7.84,1.62,7.52,5.6-.37,4.45-3.41,5.56-7.45,5.56q-112-.06-223.94,0c-5.08,0-8.07-2.16-7.68-5.77.49-4.47,3.63-5.39,7.6-5.39Q661.83,276.49,718.32,276.44Z"/><path class="cls-3" d="M678,305.8c-24.37,0-48.75-.06-73.12.06-4.12,0-7.24-.83-7.15-5.51.09-4.49,3.2-5.7,7.25-5.69q72.87.06,145.74,0c4.06,0,7,1.18,7.36,5.64s-2.53,5.55-6.46,5.54c-22.35-.06-44.71,0-67.06,0Z"/><path class="cls-3" d="M900.43,291.6c-.26,7-6.43,12.42-13.85,12.1-6.38-.28-11.59-6.2-11.34-12.88s6.27-12.61,12.67-12.28A12.88,12.88,0,0,1,900.43,291.6Zm-7.15-.72c-.8-3.08-2.59-5.37-5.88-5a5.25,5.25,0,0,0-4.92,5.92,4.79,4.79,0,0,0,5.39,4.71C891,296.21,892.88,294.11,893.28,290.88Z"/><path class="cls-3" d="M717.35,370.32H605.93a27.35,27.35,0,0,1-4.53-.11c-2.5-.41-3.75-2-3.7-4.59a4,4,0,0,1,3.54-4.23,26.27,26.27,0,0,1,4.53-.14H829.12a23.41,23.41,0,0,1,4,.11c2.51.42,3.75,2,3.7,4.6a4,4,0,0,1-3.54,4.23,25.2,25.2,0,0,1-4.52.13Z"/><path class="cls-3" d="M678.47,376.37h72.08a21.52,21.52,0,0,1,4,.13,4.08,4.08,0,0,1,3.56,4.22,4.15,4.15,0,0,1-3.67,4.63,17.92,17.92,0,0,1-3.52.12H604.78a16.38,16.38,0,0,1-3.51-.14,4.16,4.16,0,0,1-3.56-4.72,4.06,4.06,0,0,1,3.66-4.13,24.46,24.46,0,0,1,4-.11Z"/><path class="cls-3" d="M887.7,361.19c7,0,12.72,5.47,12.72,12.15,0,7.48-5,12.18-13,12.17-7.43,0-12.22-4.87-12.16-12.31S880.15,361.16,887.7,361.19Zm-.17,17.28c3.05-.35,5.63-1.8,5.66-5.05s-2.3-4.92-5.57-5.13c-3.73-.23-5.2,2.11-5.15,5.22C882.53,376.37,884,378.63,887.53,378.47Z"/><path class="cls-3" d="M712.55,446.05c-9.59,1.05-19-.53-28.49-1.73a81.3,81.3,0,0,0-30.83,1.79c-1.45-1.73-3.44-1-5.2-1.05q-21.69-.07-43.39,0c-3.36,0-6.9.05-6.87-4.52s3.72-4.55,7-4.55q57.27-.06,114.55,0H826.75c.68,0,1.35,0,2,0,3.47.12,7.86-.6,8,4.53.1,5.33-4.33,4.53-7.79,4.53q-54.75,0-109.5,0C717.08,445,714.72,444.85,712.55,446.05Z"/><path class="cls-3" d="M709.61,461.1A33.89,33.89,0,0,0,713,451l34.68.11c1.34,0,2.68,0,4,0,3.4.14,6.52.68,6.4,5.17-.12,4.19-3.14,4.73-6.3,4.76-9.22.07-18.43,0-27.65,0C719.33,461.06,714.47,461.09,709.61,461.1Z"/><path class="cls-3" d="M644.41,451.25l-7.25,9.91L607,461.05a17.84,17.84,0,0,1-3.51-.08c-3.14-.63-6-1.83-5.68-5.74s3.45-4.09,6.38-4.12c7.55-.07,15.1-.05,22.66,0C632.67,451.11,638.54,451.2,644.41,451.25Z"/><path class="cls-3" d="M887.8,435.91a12.82,12.82,0,0,1,12.63,12.91c-.16,6.63-6.36,12.5-12.92,12.24a12.86,12.86,0,0,1-12.27-13.39A12.3,12.3,0,0,1,887.8,435.91Zm.2,17.19c3.29.47,5.17-1.62,5.23-4.83s-2.24-5.27-5.5-5.2-5.26,2.16-5.36,5.43S884.48,453.14,888,453.1Z"/><path class="cls-3" d="M440.68,181.61c-13.11,0-26.22,0-39.33,0-5,0-7.56-2.35-7.5-6.64s2.5-6.42,7.21-6.43q39.33,0,78.65,0c6.21,0,9.39,4.3,7.21,9.38-1.23,2.88-3.37,3.76-6.41,3.74C467.23,181.55,454,181.61,440.68,181.61Z"/><path class="cls-3" d="M425.56,202.85c-8.23,0-16.46,0-24.69,0-4.54,0-7.16-2.48-7-6.62s2.63-6.43,6.81-6.44c16.46-.05,32.92-.08,49.37,0,4.51,0,6.27,2.36,6.36,7.17.08,4.35-2,6-6.17,5.93C442,202.76,433.79,202.85,425.56,202.85Z"/><path class="cls-3" d="M705.6,520.52c.55-3-.94-6.2,1.12-9H828.67a28.48,28.48,0,0,1,4.53.12,4.1,4.1,0,0,1,3.65,4.14A3.73,3.73,0,0,1,834,520a13.49,13.49,0,0,1-3.93.61Q767.85,520.6,705.6,520.52Z"/><path class="cls-3" d="M699.57,535.64l4.74-9.79c15.6,0,31.21-.06,46.81,0,3.49,0,7,.23,7,5.08,0,4.53-3.37,4.86-6.69,4.86C734.14,535.75,716.86,535.68,699.57,535.64Z"/><path class="cls-3" d="M887.52,535.81c-7.21-.07-12.4-5.56-12.28-13,.1-6.58,6-12.26,12.76-12.17a12.59,12.59,0,1,1-.48,25.18Zm0-18c-2.74,1-5.5,2.1-5.17,5.75.28,3,2.14,5.17,5.19,5.06,3.38-.12,5.81-2.27,5.54-5.84C892.88,519.79,890.63,518.15,887.55,517.77Z"/><path class="cls-5" d="M668.38,535.87c.52-1.91-2.2-4.25-.19-5.45,1.54-.92,3.57,1.15,5.28,2.12s3.36,2.09,5,3.14Z"/><path class="cls-5" d="M669.28,542.87a1.73,1.73,0,0,1-.72-2.11C669.75,541.13,670.82,541.56,669.28,542.87Z"/><path class="cls-1" d="M727.67,644.06a104.17,104.17,0,0,1-11.23-15.27q62.7-.06,125.41-.12c20.65,0,41.3.14,61.94.22-.6,1.83-2.33,2.28-3.78,3a132.6,132.6,0,0,0-20.74,12.87c-.67-3.07-3.16-1.95-4.93-1.95q-70.79-.09-141.56,0C731,642.81,729,642.2,727.67,644.06Z"/><path class="cls-3" d="M695.16,595.39a29.09,29.09,0,0,1-4.88-9q70.37-.06,140.75-.15c3.28,0,5.85.86,5.77,4.63-.09,4.18-3.14,4.49-6.43,4.48q-62.05,0-124.11,0C702.56,595.35,698.86,595.37,695.16,595.39Z"/><path class="cls-3" d="M704.34,610.53a43.09,43.09,0,0,1-5.69-9.13q26.4,0,52.79,0c3.44,0,6.74.21,6.64,4.73-.1,4.18-3.24,4.4-6.48,4.4Q728,610.48,704.34,610.53Z"/><path class="cls-3" d="M887.49,610.53c-7.41,0-12.24-4.77-12.25-12.12,0-7.55,4.83-12.22,12.67-12.2,7.43,0,12.63,5,12.52,12C900.31,605.3,894.84,610.53,887.49,610.53Zm-1-17.31c-2.33-.24-3.87,2-4,4.88s2,4.9,5,5.27a4.73,4.73,0,0,0,5.5-4.65C893.14,595.66,891.12,593.45,886.46,593.22Z"/><path class="cls-4" d="M1004.52,515.49c-2.78-1.86-5.88-.71-8.82-.89-5.81-.36-8.51-3-8.54-8.78q-.06-11.32,0-22.67c0-5.53,2.06-7.83,7.42-7.89,10.92-.13,21.84-.15,32.75,0,5.86.08,7.34,2.35,7.51,10.52-7.37,9.6-16.51,17.47-25.27,25.71C1008,513,1006.21,514.16,1004.52,515.49Z"/><path class="cls-1" d="M963.08,630.13c-.42,1.36-1,2-2.06.47A1.8,1.8,0,0,1,963.08,630.13Z"/><path class="cls-3" d="M985.25,293.23a25.74,25.74,0,0,1,27.06-25c13.24.72,24.58,12.09,24.41,25.7-.17,13.86-12,25.83-25.64,25.91C996.94,319.91,985.13,307.74,985.25,293.23Z"/><path class="cls-3" d="M1011.06,342.09c6.88,0,13.76.06,20.64,0,3.47,0,6,.83,6.09,4.88s-2.17,5.2-5.78,5.18c-14.1-.05-28.19-.08-42.29,0-3.77,0-6.06-2-6.11-5.23-.05-3.56,2.85-4.87,6.31-4.85C997,342.13,1004,342.09,1011.06,342.09Z"/><path class="cls-3" d="M741.52,661.33c4.35-.11,8.71-.32,13.06-.33q37,0,74,0a19.26,19.26,0,0,1,4.5.28,4.41,4.41,0,0,1,3.65,4.76c-.1,2.57-1.77,3.85-4.29,4-1.17.07-2.35,0-3.53,0-24.17,0-48.34,0-72.51.05-1.94,0-4.57-1.21-5.51,1.94A67.07,67.07,0,0,1,741.52,661.33Z"/><path class="cls-2" d="M394.69,276.27C393.79,265,403,254.71,416,254.46c11.23-.21,21,10,21.11,21.33.07,11.91-9.52,21.8-21.16,21.83A21.1,21.1,0,0,1,394.69,276.27Z"/><path class="cls-3" d="M494.71,262.4h37.77c1.84,0,3.68-.09,5.39.86,1.94,1.08,3.15,2.74,3,4.86a4.72,4.72,0,0,1-3.51,4.41,19.63,19.63,0,0,1-5.94.85q-37.75,0-75.53,0a17.88,17.88,0,0,1-3-.09c-2.94-.49-5.19-2.16-5.29-5.18-.11-3.31,2.19-5.31,5.36-5.56,4-.31,8.05-.12,12.08-.13Z"/><path class="cls-3" d="M478.73,289.54c-7.9,0-15.8,0-23.69,0-4.71,0-8.14-2.47-7.5-5.56.78-3.77,3.76-4.56,7.32-4.54q24.19.13,48.39,0c3.51,0,6.5.43,6.6,4.89s-3,5.15-6.43,5.18C495.19,289.58,487,289.54,478.73,289.54Z"/><path class="cls-2" d="M404.5,456a225.5,225.5,0,0,0-11.75-21c2-.36,1.75-2,2.11-3.47,2.84-11.8,14.9-18.69,26.91-15.45,11.44,3.08,17.85,15.46,14.27,27.57-3.17,10.74-15.37,16.86-26.68,13.42C407.78,456.65,406.12,456.4,404.5,456Z"/><path class="cls-3" d="M493.85,433.83H456c-1.84,0-3.67.11-5.41-.81a5.12,5.12,0,0,1-3.07-4.82,4.69,4.69,0,0,1,3.46-4.47,19.08,19.08,0,0,1,5.94-.87q36.84,0,73.66.05c1.82,0,3.63.57,5.46.68,3.06.19,4.81,2,4.8,4.78,0,3-2.19,4.81-5.13,5.34a22.55,22.55,0,0,1-4,.12Z"/><path class="cls-3" d="M479,450c-8.07,0-16.15-.13-24.21.06-3.95.09-7.12-1.17-7.05-5.24.06-3.71,3.06-5,6.84-4.93,16.31.14,32.63.1,48.94,0,3.7,0,6.36.85,6.29,5.21-.07,4.06-2.61,4.93-6.09,4.9C495.52,450,487.28,450,479,450Z"/><path class="cls-3" d="M644.12,520.6l-38.73,0a11,11,0,0,1-3.5-.17c-2.31-.82-4.29-2.31-4.09-5.05s2.27-3.86,4.94-3.86c10.73,0,21.46,0,32.2,0,1.76,0,3.73.62,5.2-1l5,4.24C645.08,516.72,645.3,518.79,644.12,520.6Z"/><path class="cls-3" d="M641,535.83l-34.17-.06c-1.17,0-2.35.06-3.52,0-3.26-.24-5.57-1.93-5.47-5.26.1-3.14,2.64-3.83,5.44-3.82,13.23,0,26.47,0,39.7-.06C642,529.61,642.53,532.94,641,535.83Z"/><path class="cls-1" d="M623.59,553.88l-13.51,15.6c-1.14-1.71-2.92-1.36-4.56-1.37-4.85,0-9.71,0-14.56,0-6.66,0-9.42,2.67-9.44,9.3,0,11.38,0,22.76,0,34.15-4.23,8.32-8.53,16.62-12.68,25a254.8,254.8,0,0,0-12.56,29.53c-.6,1.7-.88,3.62-2.74,4.59-.1-13.43-.24-26.87-.29-40.3,0-15.63,0-31.26,0-46.88,0-2.19.17-4.39-1-6.38,1.06-1.62,1-3.45,1-5.29,0-9.64,0-19.29,0-28.93a18.18,18.18,0,0,1,10.89-5.29c5.87-.87,11.62-2.49,17.43-3.79,0,4,0,8,0,12.05.07,5.15,2.89,8.1,8,8.11C600.84,554,612.21,553.91,623.59,553.88Z"/><path class="cls-2" d="M553.19,542.88c0,9.64,0,19.29,0,28.93,0,1.84,0,3.67-1,5.29-11.59-.45-23.24,1.19-34.76-1.11,6.46-5.27,13-10.49,19.37-15.83,2.57-2.15,4.83-4.66,7.4-6.81,1.89-1.58,1.86-3.33,1.18-5.34C548.57,547.15,550,543.71,553.19,542.88Z"/><path class="cls-1" d="M893.28,290.88c-.4,3.23-2.25,5.33-5.41,5.6a4.79,4.79,0,0,1-5.39-4.71,5.25,5.25,0,0,1,4.92-5.92C890.69,285.51,892.48,287.8,893.28,290.88Z"/><path class="cls-1" d="M887.53,378.47c-3.56.16-5-2.1-5.06-5-.05-3.11,1.42-5.45,5.15-5.22,3.27.21,5.59,1.95,5.57,5.13S890.58,378.12,887.53,378.47Z"/><path class="cls-4" d="M888,453.1c-3.52,0-5.72-1.2-5.63-4.6s2.11-5.36,5.36-5.43,5.55,1.94,5.5,5.2S891.29,453.57,888,453.1Z"/><path class="cls-1" d="M887.55,517.77c3.08.38,5.33,2,5.56,5,.27,3.57-2.16,5.72-5.54,5.84-3.05.11-4.91-2-5.19-5.06C882.05,519.87,884.81,518.75,887.55,517.77Z"/><path class="cls-1" d="M886.46,593.22c4.66.23,6.68,2.44,6.47,5.5a4.73,4.73,0,0,1-5.5,4.65c-3-.37-5.09-2.21-5-5.27S884.13,593,886.46,593.22Z"/><path class="cls-3" d="M887.93,660.94a12.39,12.39,0,0,1,12.5,12.8,12.6,12.6,0,1,1-25.19-.76C875.28,666.19,880.85,660.91,887.93,660.94Zm-.3,17.2c3-.15,5.44-1.77,5.46-4.63s-1.73-5.56-5.27-5.42c-3.22.12-5.44,2-5.34,5.3C882.57,676.26,884.12,678.47,887.63,678.14Z"/><path class="cls-1" d="M887.63,678.14c-3.51.33-5.06-1.88-5.15-4.75-.1-3.25,2.12-5.18,5.34-5.3,3.54-.14,5.29,2.56,5.27,5.42S890.63,678,887.63,678.14Z"/></g><g id="Calque_5" data-name="Calque 5"><path class="cls-6" d="M1036.7,600.12c3,5.22,5.1,10.86,7.65,16.29,3.62,7.68,7.35,15.28,11.37,22.76,1.44,2.68,3,4.21,6.12,3.85,9.47-.35,18.94-.22,28.4-.07,1.68-.47,1-1.87,1-2.88A538.88,538.88,0,0,0,1090,585c-2.81-35.13-9.36-69.54-20.82-102.93a364.58,364.58,0,0,0-48-94.06c-.5-.7-1-1.43-1.45-2.14s-.52-1.45.45-1.82c11.79-4.51,15.81-15.19,20.12-25.54,2.7-6.5,4.32-13.26,3.32-20.43-1.2-8.68-6.32-14.07-14.24-17.13s-15.78-2.62-23.75-1c-13.38,2.81-26.69,6-40.5,5.78-1.25,0-2.49-.06-3.73-.09a50.74,50.74,0,0,1-11,1,3.25,3.25,0,0,0-3.27,1.76c-.19.93-.31,1.89-.57,2.8-5.93,20.47-11.64,41-16.76,61.69-7.83,31.61-14.59,63.44-19.21,95.71a440.46,440.46,0,0,0-4.31,50.49c-.18,6.2.11,12.41.19,18.61.1.95.23,1.89.3,2.84.86,12.62,2.46,25.09,6.83,37.08.75,2.05,1.67,2.68,3.85,2.67,22.21-.09,44.42-.05,66.64-.06,2.58,0,5.16-.1,7.74-.15a4.65,4.65,0,0,1,.36-1.07c5.34-8.93,8.29-18.74,10.92-28.72,2.69-10.21,4.35-20.6,6.1-31,.4-2.36-.48-5.15,1.67-7.43.27.55.45.86.57,1.19,6.78,19.61,13.85,39.1,21.85,58.26C1034.56,594.22,1036.12,597,1036.7,600.12Z"/><path class="cls-7" d="M991.89,600.11c-2.58,0-5.16.15-7.74.15-22.22,0-44.43,0-66.64.06-2.18,0-3.1-.62-3.85-2.67-4.37-12-6-24.46-6.83-37.08-.07-1-.2-1.89-.3-2.84l-19.25,0c.09,3.75,1.23,7.33,2,11q6.36,31.5,13.57,62.82c4.85,21.17,10.27,42.21,15.79,63.21,4.58,17.44,9.7,34.72,15.08,51.93,1.51,4.8,3.46,9.52,3.83,14.63,1.22.12,1.09,1.24,1.31,2,10.79,35.49,23.31,70.38,36.66,105,11.29,29.23,23.11,58.26,36,86.83.94,2.09,1.91,4.19,2.65,6.35s2.11,2.91,4.35,2.69a39.62,39.62,0,0,1,4.87.06l39.84,0c.19,0,.38,0,.57,0,6.58-.19,6.6-.19,4.91-6.71-7.35-28.38-13.65-57-19.66-85.68-4.22-20.16-7.7-40.48-11-60.82-2.3-14.12-4.44-28.27-6.29-42.45-1.66-12.77-2.81-25.61-4.24-38.4-1.78-15.94-3.2-31.91-4.11-47.92-.55-9.54-1.26-19.06-1.71-28.6-.61-13.19-.9-26.38-1.19-39.57-.09-4.48-.35-9-.3-13.47-1.33-.06-2.66-.17-4-.19C1008.08,600.21,1000,600.17,991.89,600.11Z"/><path class="cls-8" d="M937.51,761.32c-.37-5.11-2.32-9.83-3.83-14.63-5.38-17.21-10.5-34.49-15.08-51.93-5.52-21-10.94-42-15.79-63.21q-7.18-31.34-13.57-62.82c-.73-3.62-1.87-7.2-2-11-5-.57-9.95-1-14.94,0-7.16,26.71-12.77,53.74-17.27,81q-4.2,25.49-7.28,51.1c-2.16,17.85-3.77,35.76-5.25,53.68-1.57,19-2.57,38-3.52,57-.86,17.21-1.32,34.43-1.74,51.65-.81,32.85-.61,65.7-.34,98.54,0,3.06.27,6.12.28,9.18,0,1.49.53,2.06,2,2,1.81-.06,3.63,0,5.45.07,8.18-.06,16.37-.19,24.56-.17,4.56,0,9.13-.31,13.69.22,5.83-.45,5.82-.45,7.23-6.23q12.29-50.15,24.57-100.31,10.8-44.32,21.42-88.68C936.6,765,937.58,763.29,937.51,761.32Z"/><path class="cls-9" d="M927.74,341.63c-2.76,1.5-4.58,4-6.63,6.25C902.79,367.76,888,390.22,874,413.2c-12.53,20.5-24.44,41.37-37.59,61.5-14.69,22.5-30.8,43.87-50.3,62.49a180.3,180.3,0,0,1-19.67,16.29c-1.64,1.18-2.7,2.25-1.36,4.25.9.25,1.31,1,1.85,1.68l12.12,15c2.19,4.08,5.18,5,10,4.26,27.56-4.29,53.2-13.42,76.45-29,1-.68,2.08-1.31,3.12-2,1.07-4.84,2-9.73,3.23-14.52,4.6-17.31,10.81-34.07,17.46-50.68,9.18-22.9,18.63-45.69,25.77-69.36C922.06,389.77,926.72,366,927.74,341.63Z"/><path class="cls-2" d="M917.74,341.63c-1,24.4-5.68,48.14-12.72,71.49-7.14,23.67-16.59,46.46-25.77,69.36-6.65,16.61-12.86,33.37-17.46,50.68-1.27,4.79-2.16,9.68-3.23,14.52,0,.38.05.76.08,1.14.47,7.15,2.32,8.89,9.45,8.89l4.25,0c5-1,10-.55,14.94,0l19.25,0c-.08-6.2-.37-12.41-.19-18.61a440.46,440.46,0,0,1,4.31-50.49c4.62-32.27,11.38-64.1,19.21-95.71,5.12-20.69,10.83-41.22,16.76-61.69.26-.91.38-1.87.57-2.8l-19.07,2.86c-2.72.39-5.43.89-8.16,1.16-1.56.15-2.21.77-2.19,2.32C917.81,337.05,917.76,339.34,917.74,341.63Z"/><path class="cls-10" d="M968.91,303.61c-1.66-8.33,2.22-14.58,3-20.48a48.42,48.42,0,0,1,2.73-10.63c3.39-9.12,3.28-12.89,1.28-26.89-4.63-10.88-4.65-20.86-15-24-5.29-1.61-18.34-6.61-24-6-12.15,1.3-9,1-38,7-2,.87-11,2-16,0,.19,3.52-1,2.9,3,13,2.13,1.7,12.48,6.73,15.19,7.25,3.71.71,7.41.54,11.12.67a6.38,6.38,0,0,1,2.54.21c5.52,2.84,9.38,7.46,12.67,12.55,1.64,2.53.4,5.38.24,8.08,0,.67-.09,1.34-.18,2-1.09,7.95-2,15.93-5.55,23.3-2.58,5.37-5.23,7-11.05,6.62a33.52,33.52,0,0,1-8.1-1.66c-5.63-1.79-10.86-4.71-16.67-6-2.81.71-3.13,2.53-2.34,5a13.54,13.54,0,0,0,3.25,5.21c3.3,1.65,6.63,3.27,9.42,5.74a3.59,3.59,0,0,1,1.15,4.12c-.53,1.48-1.88,1.36-3.11,1.37-1.61,0-3.24-.17-4.7.75-.07,2.86-.33,5.71.34,8.56.7,3,2.57,4.89,5.54,4.86,10.14-.1,20-1.76,28.76-7.22a24.54,24.54,0,0,0,4.63-4.25,32.83,32.83,0,0,0,3.11-10.07,269.77,269.77,0,0,0,2.94-36.57c.07-3.36.7-3.81,4-3.1a12,12,0,0,1,7.5,18.85c-1.13,1.62-1,2.61.11,4,2.33,2.9,3.39,7.45,6.86,8.83C955.91,295.61,970.21,304.57,968.91,303.61Z"/><path class="cls-11" d="M843.11,983.44c-2.76-1.33-4.89-.24-7.27,1.34-18.29,12.11-38.58,19.26-59.92,23.67-2.72.56-5.46,1-8.18,1.56-3.1.64-4.34,2.61-3.63,5.67a4.88,4.88,0,0,0,.18.54c.86,2.84.92,6.56,2.81,8.26s5.67.51,8.62.51q51.42.06,102.83,0c3.56,0,7.44-3.88,7.24-7.42-.55-9.66-1.2-19.31-1.75-29-.1-1.64-.54-2.3-2.28-1.65a17.3,17.3,0,0,1-3.1.52C866.41,989.62,854.68,987.24,843.11,983.44Z"/><path class="cls-11" d="M1030.43,982.43c-14.88,10.64-31.46,17.6-49,22.54a225.63,225.63,0,0,1-22.08,5c-3.68.65-5,2.52-4,6.06.83,2.92.68,6.74,2.84,8.5s5.7.5,8.65.5q51.38.06,102.75,0c3.55,0,7.44-3.76,7.25-7.4-.5-9.75-1.2-19.48-1.8-29.22-.09-1.32-.45-2-1.95-1.48a17.64,17.64,0,0,1-3.11.41c-3.8,1.23-7.73,1-11.63.9C1048.77,987.89,1039.56,985.32,1030.43,982.43Z"/><path class="cls-12" d="M1090.24,643c-9.46-.15-18.93-.28-28.4.07,1.56,5.47,4.58,10.66,3.5,16.63a71.76,71.76,0,0,1-5.43,17.75c-1.41,3-2.72,6.12-4.26,9.09-1.13,2.18-.16,3,1.78,3.31a8.61,8.61,0,0,0,7.56-2.62c1.47-1.37,2.82-2.87,4.24-4.28,5.18-5.15,8.88-5.89,15.45-2.59,5.63,2.83,11.14,5.92,16.62,9,9.46,5.37,19,6.61,28.81,1,4.2-2.4,4.81-7.28,1-10.36-7.19-5.81-14.81-11.07-21.92-17a176.75,176.75,0,0,1-16.87-15.49C1091.14,646.25,1090.06,644.86,1090.24,643Z"/><path class="cls-13" d="M886.12,288.63c5.81,1.29,11,4.21,16.67,6a33.52,33.52,0,0,0,8.1,1.66c5.82.34,8.47-1.25,11.05-6.62,3.53-7.37,4.46-15.35,5.55-23.3.09-.66.14-1.33.18-2,.16-2.7,1.4-5.55-.24-8.08-3.29-5.09-7.15-9.71-12.67-12.55a6.38,6.38,0,0,0-2.54-.21c-3.71-.13-7.41,0-11.12-.67a15.85,15.85,0,0,1-7.22-3.16C887,255.33,885.19,271.76,886.12,288.63Z"/><path class="cls-14" d="M991.89,600.11c8.09.06,16.19.1,24.28.17,1.33,0,2.66.13,4,.19l16.54-.35c-.58-3.13-2.14-5.9-3.34-8.77-8-19.16-15.07-38.65-21.85-58.26-.12-.33-.3-.64-.57-1.19-2.15,2.28-1.27,5.07-1.67,7.43-1.75,10.39-3.41,20.78-6.1,31-2.63,10-5.58,19.79-10.92,28.72A4.65,4.65,0,0,0,991.89,600.11Z"/><path class="cls-13" d="M955.72,295.81a2.34,2.34,0,0,1-2.15-1.14c-2.26-3-4.53-5.93-6.86-8.83-1.1-1.36-1.24-2.35-.11-4A12,12,0,0,0,939.1,263c-3.29-.71-3.92-.26-4,3.1a269.77,269.77,0,0,1-2.94,36.57,32.83,32.83,0,0,1-3.11,10.07c1.85.37,1.33,1.67,1.16,2.88-.72,5.21-1.4,10.43-2.1,15.65l19.07-2.86a3.25,3.25,0,0,1,3.27-1.76,50.74,50.74,0,0,0,11-1c-1-7-2.74-13.76-4.19-20.62C956.6,302,955.63,299,955.72,295.81Z"/><path class="cls-12" d="M779,574.36l-12.12-15c-.54-.66-.95-1.43-1.85-1.68-7.48,5.14-16.56,6.12-24.73,9.47a183.12,183.12,0,0,0-22.83,10.69,3.19,3.19,0,0,0-.72.47c-1.38,1.48-3.8,2.65-2.95,5.08s3.28,1.89,5.24,1.91c6,0,12-.89,18-.6a24.66,24.66,0,0,1,6.74,1.2c3,1,3.8,2.78,2.61,5.82-.72,1.87-1.51,3.71-2.2,5.6a4.27,4.27,0,0,0,1,4.78c1.37,1.22,2.9.06,4.22-.66,3.51-1.89,6.17-4.87,8.91-7.61,5.26-5.26,10.11-10.93,15.08-16.48C775,575.69,776.63,574.41,779,574.36Z"/><path class="cls-15" d="M843.11,983.44c11.57,3.8,23.3,6.18,35.55,4.06.55-7.48,2.55-14.71,3.67-22.08.17-1.13.4-2.24.61-3.35-4.56-.53-9.13-.22-13.69-.22-8.19,0-16.38.11-24.56.17C844.42,969.18,843.91,976.32,843.11,983.44Z"/><path class="cls-16" d="M1030.43,982.43c9.13,2.89,18.34,5.46,28,5.79,3.9.13,7.83.33,11.63-.9q-3.43-11.6-6.88-23.19l-39.84,0c1.29,5.41,4.22,10.16,6.18,15.3A7.24,7.24,0,0,1,1030.43,982.43Z"/><path class="cls-17" d="M889.79,310.81c1.46-.92,3.09-.75,4.7-.75,1.23,0,2.58.11,3.11-1.37a3.59,3.59,0,0,0-1.15-4.12c-2.79-2.47-6.12-4.09-9.42-5.74C887.09,303,888.51,306.9,889.79,310.81Z"/></g><g id="Calque_3" data-name="Calque 3"><path class="cls-18" d="M827.86,962.66c-4.16.38-5.25-1.48-5-5.55,2-29.41,3.83-58.83,5.7-88.25.4-6.35.75-12.71,1.11-19.06a5,5,0,0,0-1-3.78c2.52-9.35,1.95-18.91,2.18-28.44.1-4.41-1.75-5.61-5.73-5.25-8.83.81-17.72,1.1-26.49,2.32-7.1,1-14.36.67-21.32,2.68-12.26-.19-24.38,1.71-36.57,2.58-15.72,1.12-31.41,2.56-47.11,3.86-10.35.28-20.7.71-31.06.81-20.53.21-38.39-6.24-52.59-21.57-4.45-6.68-9.2-13.19-11.62-21,6.13-.87,12.35.47,18.47-.75a3.14,3.14,0,0,0,1,.32c20.35,0,40.69,0,61,.15,3,0,3.14-1.55,2.92-3.87-1-11-2-22.06-3-33.09l46.53.08c10.23,14.81,21.62,28.71,33.13,42.54,1.78,2.13,2.81,1.57,4.24-.18,5.43-6.64,10.77-13.34,16.41-19.79,4.94-5.64,8.78-12.27,14.94-16.83,2.55,1.61,5,3.53,7.67,4.76,6.55,3,11,7.88,14.56,13.95a77.51,77.51,0,0,0,11.86,15.54c1.29,1.28,2.56,3.77,4.91,2.45s1.88-3.65,1.06-5.83c-.23-.62-.26-1.32-.5-1.94-1.58-4.21.06-6,4.34-6a43.48,43.48,0,0,1,5.48.07c5.13.72,10.23,1.67,15.36,2.42,1.28.19,2.8.37,3.64-1,1-1.62-.12-2.94-1-4.06a23.11,23.11,0,0,0-3-2.61c-6-5.16-13.39-8.19-19.67-12.91,11.47,1.64,22.81,4,34.1,6.55a22.67,22.67,0,0,1,6.47,2.64c11.23,6.8,14.51,17.67,14.26,29.81-.43,20.67-2.75,41.22-5.88,61.63-4.86,31.69-10.12,63.31-15.19,95-.56,3.48.08,7.78-1.77,10.25-2.21,2.93-6.94.44-10.45,1.4Z"/><path class="cls-19" d="M777.35,817.33c7-2,14.22-1.7,21.32-2.68,8.77-1.22,17.66-1.51,26.49-2.32,4-.36,5.83.84,5.73,5.25-.23,9.53.34,19.09-2.18,28.44l-47.49,88.91c-.24.45-.51.88-.73,1.33-1.74,3.43-2.64,8.21-5.43,9.93-3,1.86-6.92-2.35-10.8-2.56a229.74,229.74,0,0,0-28.15-10.34c-6.39-2.94-6.34-2.92-3.42-9.84Q755,870.4,777.35,817.33Z"/><path class="cls-5" d="M757.94,955.46c5.13,4.42,8.53,10.23,12.46,15.61,6.22,8.52,12.19,17.22,18.55,25.63,3,4,7.39,6.76,11.37,9.82,4.28,3.3,4.88,5.87,2.44,10.26-2.1,3.77-4.12,5.12-8.68,2.41-23.49-14-47.23-27.49-70.9-41.15a50.7,50.7,0,0,0-6.76-3.37c-4.16-1.64-5.22-4.11-3.11-8.18,2.78-5.36,5.11-10.92,10-15,2.37-2,4.54-3.38,7.63-1.95,3.1,7.12,9.26,10,16.24,12,5.73,1.64,7.33-3.19,10.31-5.94A1.43,1.43,0,0,1,757.94,955.46Z"/><path class="cls-5" d="M908,1008.34c2.23,2.3,5.31,1.77,8,2.17,9.86,1.46,10.86,2.67,9.39,12.63a16.71,16.71,0,0,1-6.8,1.13q-16.48-.11-33,0c-1.73,0-3.69-.73-5.18.91-17.06,0-34.13-.08-51.19.14-3.8,0-5.5-1.23-5.89-4.92-1-8.87-1.86-17.68,5.68-24.57,1.3.73,2.59,1.5,3.91,2.19,9.41,4.88,19.48,1.63,22.36-7.21,2.88-3,5.61-2.2,9-.45a230.51,230.51,0,0,0,22.25,10.1C893.63,1003.2,899.91,1008.2,908,1008.34Z"/><path class="cls-16" d="M855.27,990.81c-2.88,8.84-12.95,12.09-22.36,7.21-1.32-.69-2.61-1.46-3.91-2.19l-1.14-33.17,32.35,0Q857.73,976.76,855.27,990.81Z"/><path class="cls-16" d="M757.94,955.46a1.43,1.43,0,0,0-.48.16c-3,2.75-4.58,7.58-10.31,5.94-7-2-13.14-4.86-16.24-12,1.2-5.6,4.46-10.55,5.19-16.29a229.27,229.27,0,0,1,28.16,10.34C763.07,948.07,758.83,950.87,757.94,955.46Z"/><path class="cls-20" d="M695.16,595.39c0,2.71,2.14,4.12,3.49,6a43.09,43.09,0,0,0,5.69,9.13,84.67,84.67,0,0,0,12.1,18.26,104.17,104.17,0,0,0,11.23,15.27,161.86,161.86,0,0,0,13.85,17.27,67.07,67.07,0,0,0,9.4,10.72c9.9,11,19.78,21.94,31.2,31.38,7.49,8.35,16.58,14.92,24.87,22.39,1.46,1.31,3.43,2.3,2.8,4.81-1.26.53-1.63,1.69-2,2.85-5.08,5.31-10.22,10.58-13.78,17.12-6.16,4.56-10,11.19-14.94,16.83-5.64,6.45-11,13.15-16.41,19.79-1.43,1.75-2.46,2.31-4.24.18-11.51-13.83-22.9-27.73-33.12-42.54.83-2.53-.79-4.52-1.64-6.59-15.56-37.73-28.32-76.35-36.6-116.38-3.73-18-7.08-36.15-7.63-54.64l1.24,1.07a82.67,82.67,0,0,0,9.59,18.08A29.09,29.09,0,0,0,695.16,595.39Z"/><path class="cls-2" d="M679.45,567.25c.55,18.49,3.9,36.59,7.63,54.64,8.28,40,21,78.65,36.6,116.38.85,2.07,2.47,4.06,1.64,6.59l-46.54-.08c-.74-5.81-1.63-11.6-2.2-17.43-2.17-22.17-4.13-44.35-6.38-66.51-2.64-26-4.49-52.07-5.85-78.16-.44-8.45-1.68-16.6-4.94-24.46-1.92-4.63-3.83-9.31-4.53-14.35l14.5,2a14.56,14.56,0,0,0,2.88.48c5.43-.2,7,2.71,6.3,7.57Q679,560.59,679.45,567.25Z"/><path class="cls-16" d="M669.38,545.88l-14.5-2c-1.06-1.75-2.66-2.1-4.62-2.09-3.45,0-6.91-.25-10.36-.4.37-1.85.73-3.7,1.1-5.55,1.53-2.89,1-6.22,2-9.23.55-2,1.41-3.87,1.14-6,1.18-1.81,1-3.88,1-5.89,2.73-.7,3.65-3.28,5.26-5.13,2.44-2.81,4.17-5.22,1.73-9.61-3-5.35,1.08-13.33,7-13.4,6.55-.08,8.65-4.18,11.58-8.24a83.07,83.07,0,0,1,5.72-7c1.23-1.37,2.69-2.51,4.8-2.18,6.37,1,12.61-.24,18.87-1.14,3.07,2.77,2.36,7.12,4.32,10.35.91,5.66.65,11.47,2.15,17.06q.06,8,.11,16.08c-2.06,2.79-.57,6-1.12,9-1.47,1.53-.85,3.56-1.29,5.33l-4.74,9.79c-4.41,3.67-9.39,2.39-14.27,1.52-2.28-.4-4.38-1.65-6.79-1.48-1.68-1-3.33-2.16-5-3.14s-3.74-3-5.28-2.12c-2,1.2.71,3.54.19,5.45l.18,4.89a1.73,1.73,0,0,0,.72,2.11Z"/><path class="cls-21" d="M700.14,468c-6.26.9-12.5,2.16-18.87,1.14-2.11-.33-3.57.81-4.8,2.18a83.07,83.07,0,0,0-5.72,7c-2.93,4.06-5,8.16-11.58,8.24-5.94.07-10,8.05-7,13.4,2.44,4.39.71,6.8-1.73,9.61-1.61,1.85-2.53,4.43-5.27,5.13l-5-4.24a49.53,49.53,0,0,1-8.22-17,66.17,66.17,0,0,1,0-15.15q2.63-8.57,5.24-17.13l7.25-9.91,8.82-5.14a81.3,81.3,0,0,1,30.83-1.79c9.46,1.2,18.9,2.78,28.49,1.73.16,1.64.33,3.28.49,4.92a33.89,33.89,0,0,1-3.43,10.13C707.06,464.24,703.47,466,700.14,468Z"/><path class="cls-16" d="M556.36,804.28c-.49,6.6-3.29,12.62-5.42,18.7-3.35,9.57-.79,18,2.78,26.63a52.89,52.89,0,0,1,2.57,6c.45,1.58,3,3.53.83,4.74a6,6,0,0,1-7-1.07c-2.21-2-3.63-4.92-6.9-5.57-2.56-4.34-6.18-3.19-9.83-1.89l-10.56-27.2c3.16-.47,4.27-3,5-5.49,1.48-4.87,2.71-9.82,4-14.74Z"/><path class="cls-22" d="M556.36,804.28l-24.42.08c-4.44.35-5.6-.89-5.08-5.94,4.27-41,11.53-81.38,25.19-120.42.83-2.36,1.85-4.72,1.49-7.34,1.86-1,2.14-2.89,2.74-4.59a254.8,254.8,0,0,1,12.56-29.53c4.15-8.36,8.45-16.66,12.68-25Q595.1,590,610.08,569.48l13.51-15.6c3-3,6.13-6,9-9.18,2-2.25,4.26-3.55,7.31-3.32,3.45.15,6.91.41,10.36.4,2,0,3.56.34,4.62,2.09.7,5,2.61,9.72,4.53,14.35,3.26,7.86,4.5,16,4.94,24.46,1.36,26.09,3.21,52.15,5.85,78.16,2.25,22.16,4.21,44.34,6.38,66.51.57,5.83,1.46,11.62,2.2,17.43,1,11,2,22.07,3,33.09.22,2.32.09,3.88-2.92,3.87-20.35-.1-40.69-.1-61-.15a3.14,3.14,0,0,1-1-.32c-5.32-8.14-7.93-17.43-10-26.68-3.75-16.77-7.18-33.65-7.35-51,0-3.6-1-7.19-1.53-10.79a162.06,162.06,0,0,0-4.21,27.3c-.95,17.56-2.4,35.1-2.16,52.71,0,3.08.33,6,2,8.67-1.68,1.42-1.15,3.36-1.12,5.13.11,5.82.3,11.63.45,17.45Z"/><path class="cls-16" d="M807.81,733.48c4.34,2.09,7.28,5.87,10.3,9.32,5.61,6.43,12.82,9.88,20.56,12.65,6.28,4.72,13.67,7.75,19.67,12.91a23.11,23.11,0,0,1,3,2.61c.92,1.12,2,2.44,1,4.06-.84,1.39-2.36,1.21-3.64,1-5.13-.75-10.23-1.7-15.36-2.42a43.48,43.48,0,0,0-5.48-.07c-4.28-.06-5.92,1.76-4.34,6,.24.62.27,1.32.5,1.94.82,2.18,1.25,4.53-1.06,5.83s-3.62-1.17-4.91-2.45a77.51,77.51,0,0,1-11.86-15.54c-3.59-6.07-8-11-14.56-13.95-2.72-1.23-5.12-3.15-7.67-4.76C797.59,744.06,802.73,738.79,807.81,733.48Z"/><path class="cls-23" d="M593.62,781.5c-1.67-2.65-2-5.59-2-8.67-.24-17.61,1.21-35.15,2.16-52.71a162.06,162.06,0,0,1,4.21-27.3c.53,3.6,1.49,7.19,1.53,10.79.17,17.33,3.6,34.21,7.35,51,2.07,9.25,4.68,18.54,10,26.68-6.12,1.22-12.34-.12-18.47.75Z"/></g><g id="Calque_2-2" data-name="Calque 2"><path class="cls-24" d="M183.82,664c5.31-33.89,14.13-66.78,27.49-98.42a337.37,337.37,0,0,1,47.6-80.22c6.58-8.21,13.8-15.92,20.73-23.86L305.23,438c9.16-6.7,18.16-13.63,27.55-20,4.45-3,8.41-7.35,14.42-7.52,3,.05,6,.2,9,.13,2.31-.05,3.94.57,4.31,3.09.53,2.11,1,4.23,1.6,6.32,7.84,27.56,15.11,55.27,21.05,83.3,4.68,22.11,8.47,44.35,11,66.85,1.64,14.73,1.52,29.45,1.8,44.19-1.38,11.31-2.08,22.72-5.72,33.66-1,2.87-2.34,4-5.39,3.88-7-.22-14.12-.09-21.17-.07l-70.05.25c-7.87-.09-15.74-.27-23.61-.21-2.86,0-4-1-3.68-3.8.63-6.15.94-12.35,1.76-18.48a507.27,507.27,0,0,1,11.34-57.53,18,18,0,0,0,1.9-8c-2.09,3-5,5.45-5.46,9.24-1.24,2-2.56,3.93-3.71,6-16.6,29.35-34.38,57.93-55,84.67-2.83,3.67-5.48,7.22-10.92,5.29C199.05,666.28,191.21,666.09,183.82,664Z"/><path class="cls-8" d="M519.6,962.17c-7.38-9.77-14.79-19.52-22.14-29.32A1477.84,1477.84,0,0,1,378.63,746.64c.11-2.49-.08-4.93.63-7.46,4.18-14.78,8.4-29.57,12.15-44.47,6.66-26.55,13.1-53.16,18.55-80a173.15,173.15,0,0,1,21.37,0c.62,1.54,1.15,3.13,1.88,4.62q33,67.71,62,137.23c9.42,22.61,18.48,45.37,27.7,68.06l10.56,27.2a63.23,63.23,0,0,0,6.67,16.63c-.51,1.63.55,2.9,1.06,4.25q15.61,41.63,29.91,83.7c2.73,8.07,2.73,8.07-4.77,11.53a185.6,185.6,0,0,0-23.18,7c-1.76.38-3.72.39-5.26,1.2-3.9,2-6.2.64-8.66-2.57C526.18,969.6,523.44,965.41,519.6,962.17Z"/><path class="cls-7" d="M410,614.72c-5.45,26.83-11.89,53.44-18.55,80-3.75,14.9-8,29.69-12.15,44.47-.71,2.53-.52,5-.63,7.46-2.65.61-2.25,3.11-2.8,4.85a571.47,571.47,0,0,1-20.72,54.64c-9.39,21.81-25.77,34-48.46,39.15-11.86,2.69-23.85,3.87-35.89,5.05a1.5,1.5,0,0,0-2.18.24,503.42,503.42,0,0,1-59.42.44,28.26,28.26,0,0,0-4,.34c-12.49-1.48-25-2.09-37.59-2.54-1.93-.76-4.57.26-5.8-2.28a164,164,0,0,0-6.71-25.23l-.54-3.92c4.72-1.65,9.49-3.19,14.16-5,15.47-5.9,31.36-10.69,46.45-17.59,14.75-4.66,28.93-10.77,43-17.14,18.31-8.28,14.06-5.42,17.62-22.33,7.19-34.18,12-68.79,17.85-103.21l70.05-.25c7.05,0,14.12-.15,21.17.07,3.05.09,4.43-1,5.39-3.88,3.64-10.94,4.34-22.35,5.72-33.66Z"/><path class="cls-25" d="M348.38,289.58c2.13,6.12,5.06,12,5.15,18.7,0,3,2,3.66,4.73,3.85,10.16.73,20.47.3,30.34,3.49,6.55,2.12,12.82,4.81,17.77,9.84,1.84,3.47,2.47,7,.11,10.46-7.35,1.22-12,6.55-17.32,11a102.53,102.53,0,0,1-11.73,8.69c-3.18,2-5.57,2.31-8.25-.72a7,7,0,0,0-8.75-1.77,9,9,0,0,0-5,8.14c-.16,3.53,1.11,6.55,2.76,9.53,4.64,8.38,3.39,11.26-5.69,13.36-13-3-22.82-9.71-27.07-23-1.35-11.88-.62-23.41,5.73-34a5.21,5.21,0,0,0,.24-2c2.12-.27,2.74-2.14,3.78-3.55,4.09-3.13,8-6.58,13.17-7.88,2.91-.73,2.4-2.22.57-3.72A15.18,15.18,0,0,0,342.1,307,49.28,49.28,0,0,0,317,308.58c-2.79.55-5.63.89-8.34,1.66-20.55,5.87-40.39,6.67-58.41-7.43a9.4,9.4,0,0,0-7.67-1.59c-10.89,2-20.63,6.59-29.68,12.81-9.78,4.36-19,10.09-29.75,12.12-13.89,2.62-27.76,3.57-41.27-1.5-28.61-10.74-26.87-37-11.1-53.62,6.72-7.09,15.23-11.47,23.8-15.77,15.54-5.4,30.31-3.76,44.38,4.75q6.89,4.15,14,8c13.67,7.55,28,8.29,42.7,3.65a9.94,9.94,0,0,0,5-1.13c16-5.21,32.18-9.7,49.34-8,5.4,1.68,11.13,2.27,16.29,4.77C336.19,272.15,343.76,279.4,348.38,289.58Z"/><path class="cls-26" d="M349.36,396.63c2.93-3.67,2.89-8.09,3.11-12.44,9.08-2.1,10.33-5,5.69-13.36-1.65-3-2.92-6-2.76-9.53a9,9,0,0,1,5-8.14,7,7,0,0,1,8.75,1.77c2.68,3,5.07,2.72,8.25.72A102.53,102.53,0,0,0,389.16,347c5.28-4.49,10-9.82,17.32-11,2.34,1.93,2.09,5.38,4.33,7.37a20.52,20.52,0,0,0,2.05,9.8c.22,2.13-.58,4.42,1,6.33l.09,10.82c.43,6.45-.76,12.82-1,19.23q-2.06,7-4.12,14c-4,3.42-8.46,5.29-13.69,4-4.21-1-8.3-2.53-12.44-3.82-1.37-.91-2.75-1.8-4.11-2.73-.95-.64-1.86-1.76-3.09-1-1.44.93-.65,2.33-.41,3.62.52,2.76,1,5.54,1.39,8.32.36,2.37.2,3.64-3.08,3-4.2-.77-8.47-1.89-12.86-1.24-.37-2.52-2-3.14-4.31-3.09-3,.07-6-.08-9-.13C348.52,406,349.75,401.43,349.36,396.63Z"/><path class="cls-5" d="M618.77,1004.24c2.21,3.46,6.27,3.44,9.51,4.59,4,1.42,8.44,1.68,12.71,2.25,5.92.79,7.81,3.36,6.63,9.16a45.35,45.35,0,0,0-.46,4.94H545.1c.59-7.58-2.19-15.14.82-22.85,1.57-4,3.15-6,7.45-5.26,6.93,4.75,13.87,3.58,20.86.1a3.92,3.92,0,0,0,2.31-4.06c1.83-4.75,4.66-5.73,9.05-2.8a36.38,36.38,0,0,0,7.3,3.27C601.6,996.92,609.56,1002.09,618.77,1004.24Z"/><path class="cls-5" d="M134.34,872.89c-2.43,10.18-4.78,20.39-7.34,30.54-1.43,5.63-.71,11.31-.62,16.94.06,4.71-1.67,7.28-6.26,8-5.45,1.34-7.19-1.57-7.91-6.4-3.32-22.22-8.09-44.19-11.38-66.43-1.11-7.54-2.91-15-4.28-22.56-.51-2.79.09-3.73,2.61-4.8,6.21-2.62,12.6-3,19.19-2.82,4.26.1,6.27,1.77,5.91,6.07-1.94,7.23-1.87,14,4.17,19.55-.08,3.86,3.18,3.34,5.3,3.61,4.29.55,5.26,2.33,3.8,6.36C136.13,864.82,135.38,868.91,134.34,872.89Z"/><path class="cls-16" d="M175.56,699.22c-4.45-.49-8,2.51-12.1,3.22l-11.83,0c-4.71-.06-7.91-3.14-11.1-5.92-2.64-2.29-1.37-5.88,2.9-9.38,5.42-2.08,10.84-4.15,15.36-8,3.79-.86,7.4-2.08,10-5.27,5.91-2,10.49-6,15.06-10,7.39,2.11,15.23,2.3,22.41,5.28,0,2.11-1.34,3.75-2.1,5.59-3.92,9.45-2.26,18.54,1.83,27.47-.48,2.35,1.69,6-3.1,6.24-3.27-.17-5.05-2.39-6.35-5C191.78,694.2,184.27,694.37,175.56,699.22Z"/><path class="cls-16" d="M128.43,851c-6-5.53-6.11-12.32-4.17-19.55l30.82-10.14a164,164,0,0,1,6.71,25.23C150.7,848.26,139.74,850.9,128.43,851Z"/><path class="cls-16" d="M590.31,494.55c2.78,3.25,0,5.69-1.47,8-3.23,5.06-6.64,9.91-8.51,15.77-1.3,4.09.26,5.6,3.85,6.21a21.38,21.38,0,0,0,3,.16c1.84,0,3.47.84,4,2.53.59,2.06-1.3,2.87-2.78,3.58-2.24,1.08-4.57,2-6.85,3-5.81,1.3-11.56,2.92-17.43,3.79a18.18,18.18,0,0,0-10.89,5.29c-3.17.83-4.62,4.27-7.77,5.13-3-6.64-6.58-13-8.66-20,5.52-2.38,11.53-3.66,16.48-7.31,9.82-9.09,20.55-17.07,31.22-25.1l5.2-1.06A1.43,1.43,0,0,0,590.31,494.55Z"/><path class="cls-2" d="M382.68,403.7c-3.6,2.19-4.49,5.51-4.14,9.46.13,1.56.65,2.6,2.24,2.77,4.15.42,5.55,2.7,5,6.72-.18,1.4.49,2.91.77,4.37-.8,5.16.15,10.26.74,15.33,3,25.69,10.9,50.06,19.86,74.18,10.68,28.73,24.22,56.5,30,86.92-.1,4.71,1.24,10.18-5.87,11.23a173.15,173.15,0,0,0-21.37,0l-14-.31c-.28-14.74-.16-29.46-1.8-44.19-2.51-22.5-6.3-44.74-11-66.85-5.94-28-13.21-55.74-21.05-83.3-.6-2.09-1.07-4.21-1.6-6.32,4.39-.65,8.66.47,12.86,1.24,3.28.6,3.44-.67,3.08-3-.42-2.78-.87-5.56-1.39-8.32-.24-1.29-1-2.69.41-3.62,1.23-.8,2.14.32,3.09,1C379.93,401.9,381.31,402.79,382.68,403.7Z"/><path class="cls-16" d="M566.29,967.9a118.46,118.46,0,0,0,10.25,25.21,3.92,3.92,0,0,1-2.31,4.06c-7,3.48-13.93,4.65-20.86-.1-2-8.06-6.89-14.76-10.26-22.19A185.6,185.6,0,0,1,566.29,967.9Z"/><path class="cls-27" d="M517.46,576c-13.2,6.83-26,14.62-40.12,19.43-13,4.41-26.08,8.74-40.14,8-5.79-30.42-19.33-58.19-30-86.92-9-24.12-16.86-48.49-19.86-74.18-.59-5.07-1.54-10.17-.74-15.33l6.16,8.05a225.5,225.5,0,0,1,11.75,21c1.69,5.11,4.58,9.62,7,14.35,5.12,14.55,11.73,28.47,18,42.52a148.76,148.76,0,0,0,9.22,16.67c4.39,7.19,10.76,10.65,18.72,11.89,14.11,3.26,27.73.8,41.19-3.51,11.08-2,21.4-6.51,32-10,2.07-.67,4-1.93,6,0,2.08,7,5.7,13.38,8.66,20,.68,2,.71,3.76-1.18,5.34-2.57,2.15-4.83,4.66-7.4,6.81C530.44,565.5,523.93,570.72,517.46,576Z"/></g><g id="Calque_4" data-name="Calque 4"><path class="cls-28" d="M1282.24,535.76c4.57,12.59,9.37,25.09,13.11,38a395.55,395.55,0,0,1,11.5,51.44c.27,1.81.85,3.58,1.28,5.36,1.56,10.52.34,20.53-5,29.92a17.43,17.43,0,0,0-2.47,9.57c-7.41,2.15-15,3.6-22.17,6.65-1.55,0-3.45,1.1-4.33-1.21-1.25-3.27-4.21-4.74-6.87-6.42-9.62-6.06-16.65-13.92-19-25.44-.91-4.41-2.54-8.68-3.84-13-1.27-7.56-4.41-14.52-7-21.72.09,7.33-1.44,14.48-1.71,21.72-1.49,5.65-2.67,11.4-4.55,16.91-3.47,10.2-7.38,20.23-18.24,25.13-3.42.79-6.82,1.69-10.27,2.35-16.78,3.17-32.94-.58-49-4.71-13.82-3.55-26.77-9.44-39.73-15.27-9.68-6.13-19.2-12.48-27.72-20.21-2.93-4.4-6.47-8.38-8.74-13.2-3.79-14.51-2-28.31,5.12-41.48.51-1,1.34-2.07,0-3.07,6.5-8.45,10.37-18.39,15.6-27.55,8.79-15.37,15.16-31.7,20.15-48.61a212.13,212.13,0,0,0,7.56-40.82c.39-4.31,1.49-9-1-13.19,3-6.39,1.72-13.21,1.93-19.87-.32-4.14-.82-8.28-.93-12.42-.18-6.14,1.72-8.08,7.77-8.54,2.47-.19,5,.13,7.29-1.25l9.25-.26q13-.9,26.07-1.79c9-.6,11,1.14,11.68,10.1.2,2.58-.3,5.49,2.46,7.25,3.39,2.16,6.21,5.15,10,6.7,3.9,4,8,7.84,13,10.46,2.8,4.95,7.79,7.74,11.61,11.68,14.65,15.1,27,31.9,38.34,49.56C1270.05,510.69,1276.29,523.15,1282.24,535.76Z"/><path class="cls-29" d="M1086.17,634.79c8.52,7.73,18,14.08,27.72,20.21,6.59,21.23,13.34,42.42,19.67,63.73,1.85,6.22,5,12,5.52,18.67-3,2.82-2.8,6.94-4.13,10.43-6.37,16.77-12.54,33.62-18.78,50.44-7.49,17.63-13.62,35.77-20.1,53.78-15.53,43.11-30.93,86.25-46.51,129.33a35.72,35.72,0,0,0-2.36,14.74c.56,8.38.76,16.79,1.24,25.18.16,2.68-.35,4.08-3.48,3.84-3.51-.26-7.06,0-10.59-.08-1.4,0-3.18.58-3.7-1.6s-2.25-1.55-3.65-1.29a186.1,186.1,0,0,1-41.15,2.94l-.51-2c1.47-10,.47-11.17-9.39-12.63-2.71-.4-5.79.13-8-2.17,3.9-1.5,7.86-2.86,11.7-4.52a152.54,152.54,0,0,0,27-14.61c2.54-1.76,5.88-1.93,6.72-6.25,4.21-21.53,8.89-43,13.38-64.45q14.3-68.46,28.56-136.93c3.18-15.29,6.21-30.6,9.31-45.9a1.85,1.85,0,0,0,.62-2.09c.13-1,.25-2,.38-3a323,323,0,0,0,6.91-32.29q1.52-7.06,3-14.13a1.68,1.68,0,0,0,.58-2.11l.48-2.92a1.74,1.74,0,0,0,.58-2.12l.21-1.87c3.19-13,6-26.17,8.29-39.4Z"/><path class="cls-30" d="M1139.08,737.4c-.48-6.62-3.67-12.45-5.52-18.67-6.33-21.31-13.08-42.5-19.67-63.73,13,5.83,25.91,11.72,39.73,15.27,16.08,4.13,32.24,7.88,49,4.71,3.45-.66,6.85-1.56,10.27-2.35.29,30.69.32,61.37,1,92,.54,25.88-2.14,18.58,15.81,34.84a7.39,7.39,0,0,0,1.25.75q48.94,39.63,97.89,79.27c6.78,5.5,13.51,11.05,20.26,16.58a17.12,17.12,0,0,1-3.37,4.91c-6.22,7.36-12.36,14.79-18.53,22.2-49.45-32.05-99-64-146.43-99-8.21-6.06-15.53-12.82-18.79-22.92-4.39-12.4-8.69-24.83-13.21-37.18C1145.48,755.25,1143.43,745.91,1139.08,737.4Z"/><path class="cls-25" d="M1140.86,404.79c-2.26,1.38-4.82,1.06-7.29,1.25-6,.46-8,2.4-7.77,8.54.11,4.14.61,8.28.94,12.42l-30.8-.33-2.43-5.94c-1.08-10.08-.23-20.13.55-30.18.56-.3.51-.7.21-1.16,0-.63,0-1.27,0-1.9a57.46,57.46,0,0,0,1.69-12.1l8.76-39.37,6.39-9.94c4.51-5,10.25-8.3,16.12-11.39,8.17-2.17,16.46-2.2,24.8-1.34a2,2,0,0,0,2.14.37l13.22,6.41c8,7.49,13.62,16.32,14.89,27.46.65,5.62-.1,11.35,1.39,16.91.72,2.72,1,5.58,2.84,7.9a16,16,0,0,0,4.35,7.78c10.13,10.49,17.09,22.17,16.19,37.57-.3,5.08-.13,9.23-6.74,9-3.79-1.55-6.61-4.54-10-6.7-2.76-1.76-2.26-4.67-2.46-7.25-.71-9-2.65-10.7-11.68-10.1q-13,.87-26.07,1.79c-.44-8.22-.15-16.44.15-24.66.11-3,.91-4.73,4.21-5.78a9,9,0,0,0,5.8-12.12,9.78,9.78,0,0,0-12.67-5.79c-1.64.58-2.95,1-4.71,0-4.9-2.56-10-4.73-14.91-7.27-5.21-2.69-10.42-5.42-14.23-10.14-1.11-1.37-1.46-4.23-3.44-3.83s-2.46,3.06-3,4.94c-5.89,18.47-6.89,37.2-2.08,56,2.91,11.38,8.29,14.21,19.38,10.47,5.46-1.85,10.69-4.36,16-6.57C1141.69,401.51,1140.66,403.18,1140.86,404.79Z"/><path class="cls-29" d="M1327.18,923.23c6.17-7.41,12.31-14.84,18.53-22.2a17.12,17.12,0,0,0,3.37-4.91c1.68-1,3.09-1.31,4.94.14q12.09,9.48,24.47,18.6c2,1.51,2.65,2.7.74,4.76-2.51,2.7-4.8,5.61-7.21,8.41-.54.63-1.38,1.75-1.78,1.63-5-1.49-5.67,3-7.16,5.59-11.34,19.88-27.89,35.65-41.88,53.44-2.39,3-4.91,6-7.48,8.85-1.07,1.2-1.9,3.62-4.26,1.45-1.78-1.64-4.11-2.63-2.48-6a238.35,238.35,0,0,0,12.86-33.28A175.59,175.59,0,0,0,1327.18,923.23Z"/><path class="cls-16" d="M1140.86,404.79c-.2-1.61.83-3.28-.25-4.94-5.36,2.21-10.59,4.72-16,6.57-11.09,3.74-16.47.91-19.38-10.47-4.81-18.83-3.81-37.56,2.08-56,.59-1.88,1.13-4.55,3-4.94s2.33,2.46,3.44,3.83c3.81,4.72,9,7.45,14.23,10.14,4.91,2.54,10,4.71,14.91,7.27,1.76.93,3.07.54,4.71,0a9.78,9.78,0,0,1,12.67,5.79,9,9,0,0,1-5.8,12.12c-3.3,1.05-4.1,2.8-4.21,5.78-.3,8.22-.59,16.44-.15,24.66Z"/><path class="cls-16" d="M1276.5,703.42c2.25-.46,2.4-2.36,3-4.1,2.49-7.69,1.46-15.19-1-22.64,7.14-3.06,14.76-4.51,22.17-6.66,2,12.59,12.35,18.48,20.71,26,5.35,4.8,12,8,17,13.19,4.23,4.38,3.73,7.22-1.83,10-8.9,4.46-17.26,2.26-25.39-2.14-4.56-2.47-9-5.22-13.55-7.65-5.64-3-11.18-1-14.14,5-2.54.13-3.56,3-6.08,3.31-1.45.18-2.85,1.27-4.18-.17s-.35-2.84.29-4.16C1275,710.19,1277,707.18,1276.5,703.42Z"/></g></g></svg>