<svg xmlns="http://www.w3.org/2000/svg" viewBox="0 0 444 444"><defs><style>.cls-1{fill:blue;}.cls-2{fill:none;stroke:#fff;stroke-miterlimit:10;opacity:0.02;}</style></defs><g id="Calque_2" data-name="Calque 2"><g id="Calque_1-2" data-name="Calque 1"><path class="cls-1" d="M133.58,145c0-7.4.23-14.39-.08-21.36a8,8,0,0,1,8.12-8.12c15.77.23,31.55.09,47.32.09h3.28c.06-1.07.15-2,.15-2.86,0-6.29,0-12.58,0-18.88,0-4.72,3-7.66,7.71-7.66q28.91,0,57.81,0c4.74,0,7.71,2.93,7.72,7.65,0,6.22,0,12.43,0,18.65v3.1h51c4.9,0,7.81,2.9,7.81,7.79,0,7.06,0,14.12,0,21.6,2.46,0,4.76,0,7.05,0,4.58,0,7.55,2.9,7.53,7.3s-2.91,7-7.51,7c-6.13,0-12.27,0-18.41,0-3.46,0-3.46,0-3.46,3.41q0,82.17,0,164.33c0,.94,0,1.87,0,2.8a6.89,6.89,0,0,1-6.95,6.93H155.34c-4.11,0-7-3.05-7-7.39q0-30.32,0-60.61,0-53,0-106.06c0-3.41,0-3.41-3.46-3.41-6.21,0-12.43,0-18.64,0-4.39,0-7.27-2.82-7.28-7a6.94,6.94,0,0,1,7.29-7.31C128.6,145,130.92,145,133.58,145Zm161.73,96.1c0-26.26,0-52.52.05-78.77,0-2.33-.56-3-3-3q-63.39.1-126.78,0c-2.35,0-3,.64-3,3q.11,78.54.05,157.08c0,3.09,0,3.1,3,3.1H292.26c3,0,3.05,0,3.05-3.08ZM228.89,145q39.27,0,78.54,0c2,0,2.79-.5,2.69-2.59-.15-2.94,0-5.9,0-8.85,0-3.66,0-3.66-3.7-3.66q-77.38,0-154.76,0c-.55,0-1.09,0-1.63,0-1.49-.11-2.1.54-2.08,2,.05,3.34,0,6.68,0,10,0,3,0,3,3.12,3Zm22.37-29.52c0-4.28-.06-8.45,0-12.62.05-1.88-.73-2.38-2.49-2.35-5.2.08-10.41,0-15.61,0-8,0-16,0-24,0-.79,0-2.26.71-2.27,1.12-.17,4.55-.11,9.11-.11,13.77Z"/><path class="cls-1" d="M192.07,241.11q0,29.58,0,59.17a7.14,7.14,0,0,1-13.92,2.31,8.57,8.57,0,0,1-.36-2.73q0-58.94,0-117.87c0-4.48,2.86-7.57,7-7.6,4.35,0,7.3,3,7.3,7.55Q192.09,211.52,192.07,241.11Z"/><path class="cls-1" d="M265.93,240.73q0-29.58,0-59.16a7.16,7.16,0,0,1,14-2.18,8.42,8.42,0,0,1,.29,2.51q0,58.93,0,117.87c0,4.63-2.86,7.65-7.19,7.63s-7.1-3.08-7.1-7.73Q265.92,270.19,265.93,240.73Z"/><path class="cls-1" d="M221.86,240.62q0-29.48,0-59a7,7,0,0,1,5-7,6.71,6.71,0,0,1,7.65,2.5,10.44,10.44,0,0,1,1.51,5.19c.1,22.69.07,45.37.07,68q0,24.93,0,49.87a7.12,7.12,0,0,1-13.9,2.31,11.64,11.64,0,0,1-.36-3.45Q221.84,269.88,221.86,240.62Z"/><rect class="cls-2" x="0.5" y="0.5" width="443" height="443"/></g></g></svg>